<?xml version="1.0" encoding="UTF-8"?>
<svg id="_图层_2" data-name="图层 2" xmlns="http://www.w3.org/2000/svg" viewBox="0 0 468.43 468.43">
  <defs>
    <style>
      .cls-1, .cls-2, .cls-3 {
        fill: #0056a8;
      }

      .cls-4 {
        fill: #fff;
      }

      .cls-2 {
        font-family: Arial-Black, 'Arial Black';
        font-size: 34.28px;
        font-weight: 800;
      }

      .cls-5 {
        letter-spacing: .07em;
      }

      .cls-3 {
        fill-rule: evenodd;
      }
    </style>
  </defs>
  <g id="Layer_1" data-name="Layer 1">
    <circle class="cls-1" cx="234.21" cy="234.21" r="234.22" transform="translate(-97.02 234.21) rotate(-45)"/>
    <circle class="cls-4" cx="234.21" cy="234.21" r="226.41" transform="translate(-97.02 234.21) rotate(-45)"/>
    <path class="cls-3" d="m263.92,129.6c-16.37-4.1-33.63-7.05-52.47-7.95,8.33,1.75,26.56,18.13,29.94,23.12,1.76,2.61-3.93-7.99-1.47-11.39,2.46-3.41,16.4-4.6,24.01-3.78Z"/>
    <path class="cls-3" d="m233.27,309.49h8.72c-4.52-21.98,37.42-12.93,52.9-10.92,20.81,2.42,30.83,1.25,36.44,1.61,0,0,0,.45-3.21-1.82-3.21-2.27-6.63-6.84-6.63-6.84-20.09-.11-30.65-2.05-48.14-8.68-9.53-3.62-33.8-8.13-38.47,13.25h-.74c-4.67-21.38-28.94-16.86-38.47-13.25-17.49,6.63-28.05,8.58-48.14,8.68,0,0-3.42,4.57-6.63,6.84-3.21,2.27-3.21,1.82-3.21,1.82,5.62-.36,15.63.81,36.44-1.61,15.48-2.01,57.42-11.06,52.9,10.92h6.23Z"/>
    <path class="cls-3" d="m309.41,283.87c12.32-25.27,21.28-60.4,5.88-93.01-14.11-29.87-46.59-45.76-64.04-51.48,2.18,1.27,3.89,2.09,7.78,4.5,7.89,5.63,13.79,13.71,16.38,23.09.18.92.35,1.86.5,2.81.59,2.93.91,5.99.91,9.12,0,.53-.01,1.06-.03,1.58.16,14.85-3.88,31.43-13.62,45.72-22.18,33.86-66.18,51.73-76.79,57.21,27.91-7.71,67-33.73,79.27-54.53,13.49-20.14,16.22-45.59,12.54-62.9,14.64,27.04,14.45,68.02-34.88,113.58,13.96-8.27,36.59-34.27,43-57.17,8.42-29.37-1.3-53.89-12.43-67.4,11.98,12.79,27.65,36.94,27.04,60.54.42,12.55-8.2,44.36-22.33,65.95,12.39-17.46,25.79-41.06,25.78-68.12-.01-25.09-16.68-49.75-30.26-61.29,13.96,9.01,30.8,23.2,39.98,44.18,14.42,32.95,1.41,69.07-4.68,87.62Z"/>
    <text class="cls-2" transform="translate(141.35 225.08) scale(.9 1)"><tspan class="cls-5" x="0" y="0">195</tspan><tspan x="76.25" y="0">8</tspan></text>
    <path class="cls-3" d="m234.21,109.92c68.63,0,124.29,55.66,124.29,124.29s-55.66,124.29-124.29,124.29-124.29-55.66-124.29-124.29,55.66-124.29,124.29-124.29h0Zm0,5.01c-65.87,0-119.29,53.42-119.29,119.29s53.42,119.29,119.29,119.29,119.29-53.42,119.29-119.29-53.42-119.29-119.29-119.29Z"/>
    <path class="cls-3" d="m35.54,152.85c3.68-3.57,6.59-5.28,8.77-5.15l4.74,2.59,2.17-8.7c1.47-2.53,2.76-3.71,3.89-3.55l1.18.93c1.2,2.57,2.04,5.06,2.55,7.48l.64,4.5c.93-2.3,2.34-3.96,4.23-4.97h1.11c1.41.57,1.59,2.5.56,5.8-.21,1.25.25,4.33,1.39,9.25,4.21,2.44,6.78,4.52,7.72,6.24,2.17,1.62,3.33,2.61,3.49,2.97-.36.89-2.22.88-5.56-.02-1.11.15-3.29-.14-6.56-.86-.47,1.89-1.76,2.7-3.88,2.44-1.34,2.58-4.3,4.05-8.91,4.41l-5.55-1.12c-2.56-1.03-3.6-2.13-3.13-3.27,1.18-1.45,2.25-2.28,3.23-2.49-.66-2.04-.87-5.18-.66-9.4l-.5-.42c-7.78-3.15-11.42-5.36-10.91-6.63h0Zm20.05,1.64l.57.23c.85.49,1.36.69,1.54.62-.68-4.58-1.64-8.09-2.88-10.53l-.2-.08c-1.29,3.19-1.78,5.9-1.48,8.1l2.45,1.65h0Zm-1.58,13.84c3.83.81,5.85.96,6.05.44l.15-.38-.95-2.61-.19-.08-1.26-.73-1.15-.47-1.06-.66-1.35-.54-1.64-.88h0c-.34,1.19.13,3.17,1.4,5.91h0Zm23.64-84.02c2.66-2.43,5.11-3.58,7.37-3.44,3.4,1.12,6.98,3.42,10.73,6.86l3.14,3,6.83,5.68,4.83,4.2c1.97,1.71,2.84,3.65,2.6,5.81-.39,2.76-1.45,5.13-3.16,7.11l-6.27,2.49-1.52,3.32h0l-3.17,4.91c-.81.94-2.2,1.38-4.15,1.32l.02.3c.65.93.71,1.7.16,2.32-1.31.87-3.04.46-5.21-1.25-2.6-3.72-5.2-6.61-7.77-8.68l-7.23-4.91c-3.39-3.87-4.72-6.21-4-7.04-.7-2.98-.63-5.47.21-7.48.66-4.54,2.86-9.38,6.6-14.52h0Zm1.03,23.07c-.28-4.08.43-7.21,2.12-9.38,1.96-1.4,3.14-1.83,3.57-1.27,1.62.86,2.91,2.53,3.86,5,.56-.43,1.3-.87,2.25-1.33.6.16,1.22-.04,1.86-.57l.57-.33c2.67-2.24,4.52-3,5.54-2.29l.45.12.45.11c.91,1.89,1.15,3.82.7,5.8-.04,5.08-1.2,9.36-3.49,12.84l-.54.62c-1.03.56-2.11.54-3.23-.07l-.15-.13c-.94-.82-1.54-2.44-1.81-4.85h0l-1.08,1.24-.14.16c-1.12.66-2.54.71-4.23.15-1.14-.99-1.04-3.64.32-7.93l-1.64-2.52-.31-.27c-2.4,4.66-3.19,7.35-2.36,8.07.74.83,1.76,2.17,3.06,4.03l.64.84.94.82,4.35,3.5,2.08,2.64c1.24,1.08,2.79.78,4.62-.91,2.22-3.19,3.16-5.01,2.84-5.47h-1.91s-.33-.57-.33-.57l.4-.47,3.4-1.71,2.22-3.82.29-.02h0l.1,1.45,1.92-1.89c1.35-3.02,1.49-5.18.43-6.47-.44-.56-1.48-1.65-3.16-3.3l-2.03-1.76-1.4-1.22-3.25-2.55-4.21-3.66-9.14-5.22c-1.09-.21-2,.1-2.72.93l-1.62,1.87c-2.62,3.01-3.84,6.52-3.66,10.51-.31,3.92.83,7.01,3.43,9.27h0Zm11.34-1.09l.31.27-.21-1-.95-1.11c.25.76.53,1.38.86,1.85h0Zm2.26-5.43l2.02,1.76,1.13,1.53.34-1.34c.02-1.08-.17-1.79-.59-2.16-1.09-.21-1.77-.27-2.06-.14l-.85.35h0Zm-5.63,9.62l.33.56.45.12h0c.34-.8.28-1.67-.18-2.62l-.31-.27-.24.6-.04,1.61h0Zm51.49-73.38c1.15-.49,3.02.05,5.61,1.6,1.34.99,2.5,2.39,3.51,4.2l1.28,1.88c3.15,1.41,5.42,2.67,6.82,3.78,3.09.18,4.75.6,4.96,1.27.77.83-.27,2.35-3.14,4.57-1.52,1.79-2.06,3.11-1.59,3.95l.78,3.1.26,1.75c.82,1.75,1.62,4.76,2.42,9.05l1.22,4.76.5.9.12.65-.18.1c-2.87-.93-5.9-4.13-9.09-9.6l-1.41-2.54-.57-.62c-.39,1-2.4,3.06-6.03,6.17-1.27.54-2.28.71-3.03.5l-.48-.45-.4-.72-.3-.55-.42-1.18c-.21-.67.05-1.76.79-3.27,1.1-4.55,1.49-7.53,1.19-8.93l-2.1-1.67c-.7,2.43-1.09,5.41-1.19,8.92-.27,3.78-.31,5.84-.11,6.21l.42,1.18c1.27,2.29,2.71,4.32,4.32,6.11.42,1.03.5,1.62.26,1.75l-.36.2c-2.34.04-4.28-1.34-5.81-4.1l-.28-.07-.34.65c-.04.49-.78,2.01-2.21,4.54-.44,1.18-1.54,2.18-3.29,3-1.3-.07-2.37-.73-3.23-1.99l-.22-.82c-.6-1.09-.31-3.84.85-8.26l.95-5.97-.2-.35c-2.16,2.92-3.66,4.62-4.5,5.08-.96.53-1.75.26-2.35-.82-.6-1.08-.24-2.85,1.08-5.31l1.6-5.61,1.05-5.78c.31-1.43.18-3.24-.41-5.43l.93-2.17c1.12-1.1,2.36-1,3.71.3l.1.19c.31,1.71.18,3.6-.41,5.66-1.17,3-2.09,5.88-2.78,8.62l-2.41,6.3.1.18.54-.3c.7-1.01,2.71-3.07,6.03-6.17-.53-2.38-.4-4.97.41-7.79-.06-.12.2-.34.8-.68.96-.53,3.05-.04,6.25,1.49.19-1.37-.02-2.59-.62-3.68l-.28-.07-.08.28-.36.2c-.24.13-.46.02-.66-.34-.48-2.57.03-4.19,1.55-4.87,1.06.2,2.06.74,3.03,1.63l.54-.3-.31-1-.83-1.91-.82-1.9-1.38-4.19.22-1.3h0Zm-4.98,22.12l.1.18.36-.2c.46-.89.7-1.73.72-2.53l-.59-.62-.36.2c-.17.26-.25,1.25-.24,2.97h0Zm9.09-5.75c.37.11.68.25.94.43.44.23.29-.32-.44-1.65l-.4-.72-.26.38c-.11.37-.06.9.16,1.56h0Zm-7.21,12.98c.12-.07.63-1.85,1.52-5.34l.22-1.3.22-1.3-1.25,1.17c-1.43,1.11-2,2.21-1.71,3.3.3,1.1.62,2.26.98,3.48h0Zm16.73-14.95l.42,1.19.1.18.18-.1.2.36c.11-.38.09-.84-.05-1.38-.32-.29-.55-.41-.66-.35l-.18.1h0Zm-21.79,13.5l.1.18,1.19-.42.18-.1-.22-.83-.18.1-1.06,1.06h0Zm14.72-1.55l.26-.38c1.06-1.22,1.6-2.08,1.65-2.57l-.4-.72-.75-.06c-.6,1.75-.86,3-.76,3.73h0Zm-12.98,11.93l.46-.02.18-.1c1.31-2.46,1.77-4.04,1.37-4.77l-.8-1.45-1.2,6.34h0Zm56.82-54.85l.21-.04c.41-.07,1.22.97,2.44,3.13.77.43,1.29,1.38,1.55,2.88l.48.33c.38,2.17.2,3.54-.54,4.09-1.35.24-2.87-.83-4.54-3.19l-.73-1.75-.18-4.59c.34-.48.78-.76,1.32-.86h0Zm19.31-1.11c-1.84,1.44-4.07,2.68-6.68,3.7l-2.68.26-1.56.7c.12.68.52.96,1.2.84,1.25.76,2.86,1.18,4.83,1.25l.04.2c-1.78,1.01-5.87,4.74-12.29,11.19-3.13,3.63-4.62,6.27-4.47,7.92,1.6,3.49,3.54,5.04,5.85,4.63l.89-2.05c.24-4.24,1.5-7.4,3.79-9.48,3.7-5.13,6.55-8,8.54-8.64,3.17.56,4.91,1.72,5.22,3.49.07.4-.07,1.19-.41,2.37l-4.62,3.54c-1.28-.89-2.12-1.3-2.52-1.23l-.85-.06-1.02.18-.78.35c-1.33.37-2.16,2.4-2.49,6.09.39.64.72.93.99.88,1.95-2.45,3.26-3.73,3.94-3.84l.37-.27.75.7-.25,2.15c-.91,1.98-1.25,3.23-1.02,3.74l.9,1.52.75.7c-1.04.47-1.75.8-2.13,1.01-4.85.99-7.22,1.83-7.1,2.51l.24.17c.21,1.22,2.49,1.45,6.83.68l3.18-.98.61-.11.11.61c-1.02,2.14-4.12,3.59-9.29,4.37l.07.41,5.35,1.78,4.38-.14c2.52-1.56,3.7-3.24,3.52-5.02l-.84-3.63,2.27-.2,2.82.55c1.49-.26,2.19-1.08,2.08-2.46l-.04-.21c-.29-1.62-2.73-2.45-7.35-2.47l-1.02.18.99.87.04.2-1.76.73c-.41.07-.74-.57-.97-1.92,1.07-1.87,1.55-3.92,1.44-6.13l3.95-1.32c1.9-.34,2.95-1.92,3.15-4.75-.17-.95-.74-2.24-1.74-3.88-2.17-2-4.55-3.25-7.16-3.78l-.04-.2,3.13-2.44c2.64-.89,4.22-1.86,4.72-2.94-.79-2.1-2.74-2.87-5.86-2.32h0Zm-3.44,5.43c.78-1.11,1.42-1.85,1.92-2.22l.23.16c-.04.56-.69,1.24-1.95,2.02l-.2.04h0Zm70.77-3.99c2.21.94,3.12,2.57,2.71,4.88l-.22,1.22c-.37.49.91,1.56,3.84,3.19,1.43-.17,2.52.37,3.27,1.62l-.18,1.02c-1.78,1.37-5.45,3.16-11.02,5.4-.54-.09-.95.6-1.21,2.09,3.12.55,4.82,2.04,5.09,4.47l-.37,3.29c-.46,1.88-.96,3.46-1.47,4.77,4.63,3.05,6.66,5.79,6.1,8.21-1.24,1.46-2.51,2.29-3.79,2.48-.69-.12-2.2-1.43-4.55-3.95l-1.42-1.5c-1.68.82-4.66,1.07-8.93.72-1.66-.15-3.28-1.63-4.88-4.42l-.2-.04-.04.2.12,5.27-.35.78h-1.25c-.72-.7-1.71-2.62-2.97-5.77-1.22-2.6-2.03-3.93-2.43-4-1.05.38-2.66.44-4.85.19-2.91-.93-4.2-2.34-3.87-4.24l2.98-2.62-.13-.43.04-.21c.33-1.06.96-1.5,1.91-1.34l1.39.45c2.17.38,5.24-.34,9.19-2.16l3.24-8.87-2.95.11c-1.74-.45-2.82-1.06-3.24-1.83.26-1.49,1.26-2.02,3-1.57l3.36-.04c.95.17,1.74-.32,2.36-1.46.96-1.51,1.66-2.65,2.07-3.41,1.23-1.46,2.37-2.31,3.38-2.55,1.11.05,1.97.7,2.59,1.93l-.69,1.56c-1.26,1.6-2.57,3.53-3.96,5.8-1.2,2.03-2.48,4.6-3.87,7.71l-.39.98.24-.17,2.63-1.84-.51-.73c.09-.54,1.86-1,5.28-1.37,1.82-5.56,2.96-8.85,3.42-9.89.14-.82.02-1.68-.38-2.59l.11-.61c.25-.65.86-.9,1.8-.73h0Zm2.07,7.28l-2.7,5.82c3.19-.69,4.91-1.3,5.14-1.81-.41-1.61-1.16-2.94-2.24-3.97l-.21-.04h0Zm-11.12,9.57c-1.08,2.19-3.13,4.69-6.15,7.52-.37.5-.66,1.42-.9,2.78l-.68,3.87c1.65,2.53,3.42,3.96,5.32,4.29,2.56-.25,4.33-.77,5.31-1.58l-2.01-2.88-3.73-3.8,1.57-.56c3.27,1.28,5.65,2.46,7.14,3.57l1.63-3.28c.27-2.32.19-3.46-.24-3.4l-.81-.14c-.46.21-1.22.98-2.3,2.32l-.41-.07c-1.08-.19-1.54-1.95-1.37-5.27l.83-2.38-.16-.23-1.3.19-.81-.14-.91-.8h0Zm-12.03,12.36l.34.47.16.24-.09-.64-.14-.44.24-.17-.52.54h0Zm91.41-1.71c2.84,2.84,4.64,5.41,5.4,7.72l-.1.18-.2.36-.1.18c-.73,1.33-2.05,2.01-3.97,2.05-2.04-1.13-3.04-2.32-2.99-3.55-.23-.44-.26-1.8-.1-4.07l.08-1.85.21-.82c.2-.36.79-.43,1.77-.21h0Zm-7.35-3.36c-.48-.27-1.02.14-1.62,1.23l-.6,1.08-7.56,10.22c-1.96-.45-3.56-.95-4.83-1.5l-1.69-1.64c-.55-.15-1.08.1-1.6.76-.25,3,.22,4.85,1.43,5.52l3.57.8.09.28h0l-.5.9-1.38,2.06-.12-1.48-.86-1.43-1.29-.24c-8.6.74-13.8,2.74-15.6,5.99-1.32,2.1-1.2,4.29.37,6.58.95.84,3.2.04,6.76-2.4.7-.71,3.01-1.47,6.93-2.29l.19.1-2.95,4.04-.84,2.37c-.11,2.77.26,4.63,1.15,5.6l.19.1c.24.13.62-.13,1.14-.79l2.74-5.8,2.68-4.42.19.1c.72.4.73,2.37.02,5.92-1.27,2.29-.58,4.17,2.07,5.64,2.55.79,4.3.34,5.23-1.35.07-1.54.08-2.71.05-3.51-.6-.33-.38-1.71.64-4.14.73-1.32.29-3.07-1.35-5.23l-.72-.4c-1.94.66-3.42.78-4.45.36l4.23-5.92c1.54.07,2.93-.03,4.17-.29l4.43.1c2.76.42,4.34.28,4.74-.45.21-.67-.28-1.5-1.47-2.47l-1-.31c-1.19-.98-1.95-1.88-2.29-2.69l-.26-.39-.2.36-.3,2.68c-.51.34-2.15.46-4.91.34l-.19-.1.1-.18c1.39-2.22,2.5-3.81,3.35-4.75l.4-.72.3-.54c2.16-4.48,2.64-7.04,1.43-7.71h0Zm-21.17,22.03c1.92-1.76,3.54-2.84,4.84-3.22.36.2.26,1.09-.29,2.68l-.7,1.26-3.77-.44-.07-.28h0Zm71.4,22.1c1.53,1.76-.14,4.77-5.03,9.02l-4.17,3.08,4.78,2.97.15-.13c.73-.64,1.12-2.07,1.18-4.32l.7.49c.6,2.58,2.02,5.37,4.24,8.35.12.99-.17,1.7-.88,2.14-.83.72-2.79.14-5.88-1.73-5.91-3.44-9.21-4.95-9.93-4.51-3.79,2.56-8.31,3.76-13.57,3.59l-2-.73c-1.55-1.57-2.21-3.28-1.98-5.12l.62-.54c1.29-.4,2.92.1,4.86,1.51.54.63,2.64.62,6.29,0l2.57-1.15-.27-.31-3.31-2.87c-1.33-1.94-1.45-4.39-.37-7.34l.03-.29.47-.41c.31-.27.74-.19,1.3.24.71,2.3,1.45,3.76,2.18,4.4,2.63,2.81,4.57,3.78,5.8,2.9l4.63-3.49.47-.4c2-2.1,3.11-3.88,3.31-5.33l.64-.84c.94-.81,1.99-.54,3.16.81h0Zm-15.46,22.2c-.81-.94-2.34-1.34-4.6-1.21l-.31.27.27.31c.58,1.51.39,3.49-.56,5.96-2.26,3.07-2.86,5.22-1.77,6.47,3.01,1.58,5.19,1.78,6.54.61l.98-1.4c.78-4.14.6-7.82-.55-11.01h0Zm52.84,30.65l.08.2c.15.38-.69,1.39-2.55,3.04-.26.85-1.08,1.55-2.49,2.12l-.22.54c-2.04.83-3.41.93-4.11.32-.51-1.27.21-2.98,2.17-5.11l1.56-1.08,4.44-1.13c.54.23.91.6,1.11,1.11h0Zm5.09,18.66c-1.79-1.5-3.47-3.43-5.01-5.77l-.81-2.57-1-1.38c-.64.26-.83.71-.57,1.35-.49,1.38-.56,3.04-.22,4.98l-.19.08c-1.36-1.53-5.86-4.76-13.49-9.7-4.2-2.3-7.09-3.22-8.67-2.73-3.08,2.29-4.19,4.52-3.31,6.69l2.19.45c4.19-.65,7.54-.07,10.06,1.73,5.78,2.56,9.18,4.75,10.22,6.56.11,3.22-.66,5.16-2.33,5.84-.38.15-1.18.18-2.41.09l-4.43-3.78c.61-1.43.83-2.34.68-2.73l-.11-.85-.39-.96-.51-.69c-.64-1.23-2.8-1.62-6.48-1.17-.54.51-.76.9-.66,1.15,2.8,1.4,4.32,2.42,4.58,3.05l.34.31-.53.88-2.15.2c-2.12-.48-3.41-.55-3.87-.22l-1.3,1.2-.53.88c-.67-.92-1.15-1.54-1.43-1.87-1.98-4.54-3.29-6.68-3.93-6.43l-.12.27c-1.14.46-.9,2.74.75,6.82l1.62,2.91.23.57-.57.23c-2.3-.55-4.37-3.28-6.2-8.19l-.38.16-.62,5.6,1.04,4.26c2.05,2.14,3.93,2.94,5.64,2.4l3.37-1.58.66,2.18.05,2.87c.57,1.41,1.51,1.92,2.84,1.52l.2-.08c1.53-.62,1.83-3.18.89-7.71l-.39-.96-.65,1.15-.19.08-1.08-1.57c-.16-.38.4-.84,1.68-1.35,2.05.66,4.15.7,6.3.14l2.12,3.59c.72,1.79,2.49,2.49,5.3,2.1.89-.36,2.04-1.19,3.43-2.51,1.5-2.54,2.23-5.13,2.2-7.79l.19-.08,3.04,2.56c1.42,2.4,2.7,3.74,3.85,4.01,1.89-1.21,2.24-3.28,1.05-6.21h0Zm-6.03-2.24c1.25.53,2.11,1,2.57,1.41l-.11.26c-.56.07-1.36-.42-2.38-1.49l-.08-.19Z"/>
    <path class="cls-3" d="m150.45,120.05c-98.12,25.08-80.16,131.84-50.34,156.77-8.6,64.67,57.48,126.75,133.72,99.11,76.24,27.65,142.32-34.43,133.72-99.11,29.82-24.93,47.78-131.69-50.34-156.77-18.36-28.34-39.34-46.88-83.39-46.65-44.05-.23-65.02,18.31-83.39,46.65h0Zm83.39-14.75c71.39,0,129.29,57.9,129.29,129.29s-57.9,129.29-129.29,129.29-129.29-57.9-129.29-129.29,57.9-129.29,129.29-129.29Z"/>
  </g>
</svg>
