<?xml version="1.0" encoding="UTF-8"?>
<svg id="_图层_2" data-name="图层 2" xmlns="http://www.w3.org/2000/svg" viewBox="0 0 955.44 122.98">
  <defs>
    <style>
      .cls-1 {
        fill: #385eab;
      }

      .cls-1, .cls-2, .cls-3, .cls-4, .cls-5, .cls-6, .cls-7, .cls-8, .cls-9, .cls-10, .cls-11, .cls-12, .cls-13, .cls-14, .cls-15, .cls-16, .cls-17, .cls-18, .cls-19, .cls-20, .cls-21, .cls-22, .cls-23, .cls-24, .cls-25, .cls-26, .cls-27 {
        fill-rule: evenodd;
      }

      .cls-2 {
        fill: #647abb;
      }

      .cls-3 {
        fill: #5e72b6;
      }

      .cls-4 {
        fill: #4f66af;
      }

      .cls-5 {
        fill: #526db4;
      }

      .cls-6 {
        fill: #4661ac;
      }

      .cls-7 {
        fill: #4668b1;
      }

      .cls-8 {
        fill: #3d62ad;
      }

      .cls-9 {
        fill: #3556a5;
      }

      .cls-10 {
        fill: #1351a3;
      }

      .cls-11 {
        fill: #2458a7;
      }

      .cls-12 {
        fill: #00459c;
      }

      .cls-13 {
        fill: #00469c;
      }

      .cls-14 {
        fill: #00479d;
      }

      .cls-15 {
        fill: #00429a;
      }

      .cls-16 {
        fill: #00479b;
      }

      .cls-17 {
        fill: #004199;
      }

      .cls-18 {
        fill: #004ba0;
      }

      .cls-19 {
        fill: #0050a3;
      }

      .cls-20 {
        fill: #004a9e;
      }

      .cls-21 {
        fill: #004a9f;
      }

      .cls-22 {
        fill: #004da0;
      }

      .cls-23 {
        fill: #004a9b;
      }

      .cls-24 {
        fill: #00449b;
      }

      .cls-25 {
        fill: #004399;
      }

      .cls-26 {
        fill: #00489e;
      }

      .cls-27 {
        fill: #00489d;
      }
    </style>
  </defs>
  <g id="Layer_1" data-name="Layer 1">
    <g>
      <path class="cls-21" d="m325.94,120.02c.79-.36,1.66-.72,2.52-1.01v3.96q-1.01,0-2.52-2.95Z"/>
      <path class="cls-12" d="m906.48,121.03c-.72-.36-1.37-.72-2.02-1.01-4.46-3.1-6.77-5.62-10.01-10.01.65-.22,1.3-.36,2.02-.5,2.66,1.44,5.33,2.95,7.99,4.46q0,1.01,2.02,1.01v-1.01h1.01q0,1.01,2.02,1.01v-1.01c5.47-.43,9-1.66,13.97-3.96q1.51-.79,1.01-1.01c2.45-2.45,2.52-3.1,3.02-6.48-.72-.22-1.37-.36-2.02-.5-.72-.36-1.37-.72-2.02-1.01-.72.29-1.37.65-2.02,1.01-4.97.5-5.98,1.44-12.96,2.95h-9q-5.18-.43-8.06-2.02c0-1.37,0-2.66.07-3.96.94-.36,1.94-.72,2.95-1.01,5.33-.36,10.66-.72,15.98-1.01,2.95-1.01,5.98-2.02,9-2.95q0,.94,2.02.94v-.94h1.01l3.02-1.51c-.72-.5-1.37-1.01-2.02-1.51v-5.04h1.01c.29.65.65,1.3,1.01,2.02.65.5,1.3,1.01,2.02,1.51,4.1,6.84,13.1,1.3,19.66.22,2.74.22,5.47.5,8.28.79-.22,2.16-.36,4.32-.5,6.48-.58-.29-1.15-.58-1.73-.79.07.94.14,1.87.29,2.81-.36.29-.72.65-1.01,1.01-1.01-.22-2.02-.36-3.02-.5q-2.52-1.01-3.96-.5,0-1.01-2.02-1.01v1.01c-.72.14-1.37.29-2.02.5-3.74.94-7.06,2.16-10.3,3.96.07,3.46.14,6.98.29,10.51v1.01c-.36.65-.72,1.3-1.01,2.02-2.02,1.51-3.96,1.51-10.01,4.46q0-1.44-1.01-1.44v1.94c-.36.14-.65.29-.94.5-.65-.43-1.22-.86-1.8-1.22-.79.58-1.51,1.15-2.23,1.73q-5.11-.43-7.99-1.94Z"/>
      <path class="cls-21" d="m914.47,122.98c.72-.58,1.44-1.15,2.23-1.73.58.36,1.15.79,1.8,1.22-1.37.14-2.74.29-4.03.5Z"/>
      <path class="cls-13" d="m919.44,121.97v-1.94q1.01,0,1.01,1.44c-.36.14-.72.29-1.01.5Z"/>
      <path class="cls-13" d="m903.46,118.01q.72-1.3,3.02-1.51l-3.02,1.51Z"/>
      <path class="cls-2" d="m431.5,115.99h1.94v1.01c-.65-.36-1.3-.72-1.94-1.01Z"/>
      <path class="cls-8" d="m433.44,117v-1.01h3.02c-1.01.29-2.02.65-3.02,1.01Z"/>
      <path class="cls-25" d="m916.49,117v-1.01h2.02v1.01h-2.02Z"/>
      <path class="cls-10" d="m930.46,117c.29-.72.65-1.37,1.01-2.02v1.01c-.36.29-.72.65-1.01,1.01Z"/>
      <path class="cls-13" d="m922.46,115.99v-1.01h2.02v1.01h-2.02Z"/>
      <path class="cls-2" d="m931.46,115.99v-2.02q1.01,0,1.01,2.02h-1.01Z"/>
      <path class="cls-14" d="m36,112.03h1.94c-.36.94-.72,1.94-1.01,2.95-.36-1.01-.65-2.02-.94-2.95Z"/>
      <path class="cls-13" d="m904.46,113.98h2.02v1.01q-2.02,0-2.02-1.01Z"/>
      <path class="cls-14" d="m907.49,113.98h2.02v1.01q-2.02,0-2.02-1.01Z"/>
      <path class="cls-21" d="m180.5,112.03q0-1.01,1.94-1.01v1.44l-1.94-.43Z"/>
      <path class="cls-25" d="m182.45,112.46v-.43c1.08-.29,2.16-.58,3.24-.79.22.36.5.79.79,1.22h-4.03Z"/>
      <path class="cls-8" d="m321.48,109.01h1.01v3.96c-.36-1.37-.72-2.66-1.01-3.96Z"/>
      <path class="cls-13" d="m925.49,112.97v-.94h2.02v.94h-2.02Z"/>
      <path class="cls-12" d="m680.98,105.48c.79-.5,1.66-1.01,2.52-1.51q0,2.02,1.01,2.02,0-2.02.94-2.02c.14,1.01.29,2.02.5,3.02.5-.36,1.01-.72,1.51-1.01-.43,1.51-.86,3.02-1.3,4.61-3.02-.58-3.6-2.52-5.18-5.11Z"/>
      <path class="cls-25" d="m547.49,108v2.02h-1.01v-2.02h1.01Z"/>
      <path class="cls-21" d="m592.49,109.01c.5-.36,1.01-.72,1.51-1.01.14.65.29,1.3.5,2.02-.72-.36-1.37-.72-2.02-1.01Z"/>
      <path class="cls-21" d="m923.47,110.02c.29-.36.65-.72,1.01-1.01q.5.22-1.01,1.01Z"/>
      <path class="cls-24" d="m192.46,109.51c.22-.79.43-1.58.72-2.3.43.22.86.5,1.3.79-.72.5-1.37,1.01-2.02,1.51Z"/>
      <path class="cls-11" d="m142.49,108h3.96v1.01c-1.37-.36-2.66-.72-3.96-1.01Z"/>
      <path class="cls-4" d="m146.45,109.01v-1.01h2.02c-.72.29-1.37.65-2.02,1.01Z"/>
      <path class="cls-13" d="m177.48,109.01v-1.01h2.02v1.01h-2.02Z"/>
      <path class="cls-10" d="m321.48,109.01v-2.52c.29.79.65,1.66,1.01,2.52h-1.01Z"/>
      <path class="cls-27" d="m590.47,107.5q0-1.51,1.01-1.51v2.52l-1.01-1.01Z"/>
      <path class="cls-13" d="m652.46,107.5c.65-.22,1.3-.36,2.02-.5v1.51c-.72-.36-1.37-.72-2.02-1.01Z"/>
      <path class="cls-25" d="m147.46,108v-1.01q2.02,0,2.02,1.01h-2.02Z"/>
      <path class="cls-10" d="m195.48,108q1.01-1.8,1.51-1.51l-1.51,1.51Z"/>
      <path class="cls-13" d="m540.5,105.48v-.5c.29.79.58,1.66.94,2.52-.36-.72-.65-1.37-.94-2.02Z"/>
      <path class="cls-13" d="m150.48,106.99v-1.01h2.02v1.01h-2.02Z"/>
      <path class="cls-13" d="m156.46,106.99v-1.01q2.02,0,2.02,1.01h-2.02Z"/>
      <path class="cls-25" d="m597.46,106.99c.22-.94.43-1.87.72-2.81.72.43,1.51.86,2.3,1.3l-3.02,1.51Z"/>
      <path class="cls-13" d="m655.49,105.98v-2.02c.65.14,1.3.29,2.02.5-.72.5-1.37,1.01-2.02,1.51Z"/>
      <path class="cls-3" d="m899.5,104.98h1.94v1.01c-.65-.36-1.3-.72-1.94-1.01Z"/>
      <path class="cls-8" d="m901.44,105.98v-1.01h2.02v1.01h-2.02Z"/>
      <path class="cls-11" d="m903.46,105.98v-1.01h2.02v1.01h-2.02Z"/>
      <path class="cls-3" d="m905.47,105.98v-1.01h3.02c-1.01.29-2.02.65-3.02,1.01Z"/>
      <path class="cls-21" d="m539.5,103.03c.29.65.65,1.3,1.01,1.94v.5c-.36-.86-.72-1.66-1.01-2.45Z"/>
      <path class="cls-13" d="m130.46,104.98v-1.01h2.02v1.01h-2.02Z"/>
      <path class="cls-13" d="m155.45,104.98v-1.01h2.02v1.01h-2.02Z"/>
      <path class="cls-13" d="m164.45,103.97v-.94q3.02,0,3.02.94h-3.02Z"/>
      <path class="cls-13" d="m321.48,103.97v-2.95h1.01v2.95h-1.01Z"/>
      <path class="cls-27" d="m201.46,103.46c-.29-.94-.58-1.87-.79-2.74,1.08-.58,2.16-1.15,3.31-1.73-.86,1.44-1.73,2.95-2.52,4.46Z"/>
      <path class="cls-16" d="m822.46,102.02v-2.02h-2.02c-.36-.72-.65-1.37-.94-2.02q1.94,0,1.94-1.01h-1.94c-1.37-2.88-2.74-5.69-4.03-8.5.29-.29.58-.58.86-.79-.65-.29-1.3-.5-1.87-.72l-3.02-3.46c-.36-.36-.65-.72-.94-1.01q-.5-1.51-2.02-1.51h-1.01v-2.52c3.67-6.62,12.31-2.16,15.98,1.51-.29.36-.58.79-.79,1.22.94.07,1.87.14,2.81.29q4.46,4.46,4.97,5.98l1.01,1.01c.29.65.65,1.3,1.01,2.02.29.5.65,1.01,1.01,1.51q-1.01,0-1.01,2.02h1.51c.14,1.15.29,2.3.5,3.46h-2.02q0,1.51-1.01,1.51-.29-.5-1.01,1.01c-1.37,1.15-2.66,2.3-3.96,3.46-1.37-.5-2.74-1.01-4.03-1.44Z"/>
      <path class="cls-14" d="m534.96,97.49q.5-.29,5.11,4.03c-.22.29-.43.65-.58,1.01-1.51-1.73-3.02-3.38-4.54-5.04Z"/>
      <path class="cls-25" d="m142.49,100.01h1.01v1.01q-.29.5-1.01-1.01Z"/>
      <path class="cls-13" d="m169.49,102.02v-1.01h2.95v1.01h-2.95Z"/>
      <path class="cls-13" d="m331.49,102.02v-2.02h1.01v2.02h-1.01Z"/>
      <path class="cls-25" d="m559.44,102.02v-1.01h2.02v1.01h-2.02Z"/>
      <path class="cls-27" d="m563.47,100.01h1.01v2.02q-1.01,0-1.01-2.02Z"/>
      <path class="cls-21" d="m820.44,100.01h2.02v2.02l-2.02-2.02Z"/>
      <path class="cls-13" d="m911.45,102.02v-1.01h2.02v1.01h-2.02Z"/>
      <path class="cls-10" d="m921.46,102.02c.65-.36,1.3-.72,2.02-1.01v1.01h-2.02Z"/>
      <path class="cls-21" d="m923.47,102.02v-1.01c.65.29,1.3.65,2.02,1.01h-2.02Z"/>
      <path class="cls-13" d="m334.44,101.52c-.14-1.15-.22-2.23-.29-3.31.43.22.86.5,1.3.79-.36.79-.72,1.66-1.01,2.52Z"/>
      <path class="cls-15" d="m37.44,101.02c.14-.72.29-1.37.5-2.02l1.22,1.22c-.58.22-1.15.5-1.73.79Z"/>
      <path class="cls-9" d="m143.5,101.02v-1.01h1.94v1.01h-1.94Z"/>
      <path class="cls-10" d="m145.44,101.02v-1.01h2.02v1.01h-2.02Z"/>
      <path class="cls-27" d="m147.46,101.02v-1.01h3.02c-1.01.29-2.02.65-3.02,1.01Z"/>
      <path class="cls-27" d="m173.45,101.02v-1.01h2.02v1.01h-2.02Z"/>
      <path class="cls-25" d="m541.44,101.02v-3.02c.58.22,1.15.43,1.73.72q-.72,2.3-1.73,2.3Z"/>
      <path class="cls-25" d="m582.48,99q1.01,0,1.01,2.02-1.01,0-1.01-2.02Z"/>
      <path class="cls-13" d="m679.46,101.02v-3.02h1.01v3.02h-1.01Z"/>
      <path class="cls-21" d="m138.46,97.99c.29.14.65.29,1.01.5q0,1.51-1.01,1.51v-2.02Z"/>
      <path class="cls-15" d="m160.49,100.01v-1.01h2.02v1.01h-2.02Z"/>
      <path class="cls-13" d="m170.5,99v1.01h-3.02v-1.01h3.02Z"/>
      <path class="cls-25" d="m180.5,100.01v-1.01h1.94v1.01h-1.94Z"/>
      <path class="cls-13" d="m187.49,97.49h1.01v2.52h-1.01v-2.52Z"/>
      <path class="cls-21" d="m281.45,100.01v-.5q0-1.51,1.01-1.51c-.36.65-.72,1.3-1.01,2.02Z"/>
      <path class="cls-17" d="m545.47,98.5h1.01v1.51c-.65-.29-1.3-.58-1.94-.79.29-.29.58-.5.94-.72Z"/>
      <path class="cls-13" d="m549.5,98.5c.29-.72.58-1.37.94-2.02.65.5,1.3,1.01,2.02,1.51-1.01,0-1.01,2.02-2.02,2.02-.36-.5-.65-1.01-.94-1.51Z"/>
      <path class="cls-7" d="m563.47,100.01v-.5h2.02c-.36.14-.72.29-1.01.5h-1.01Z"/>
      <path class="cls-13" d="m599.47,94.46q3.24,2.23,4.03,4.03c-.43.29-.79.65-1.15,1.01-1.01-1.73-1.94-3.38-2.88-5.04Z"/>
      <path class="cls-27" d="m830.45,100.01q.72-1.51,1.01-1.01c-.36.29-.72.65-1.01,1.01Z"/>
      <path class="cls-13" d="m125.5,99c-.22-.72-.36-1.37-.5-2.02h1.51q0,2.02-1.01,2.02Z"/>
      <path class="cls-25" d="m189.5,97.99c.36-.29.72-.58,1.15-.79.22.58.5,1.15.79,1.8-.65-.36-1.3-.72-1.94-1.01Z"/>
      <path class="cls-13" d="m200.45,99v-2.02c.65.14,1.3.29,2.02.5-.72.5-1.37,1.01-2.02,1.51Z"/>
      <path class="cls-27" d="m582.48,99h-2.02c.14-.72.29-1.37.5-2.02.5.65,1.01,1.3,1.51,2.02Z"/>
      <path class="cls-21" d="m891.5,99l1.94-1.51c.29.14.65.29,1.01.5-1.01.29-2.02.65-2.95,1.01Z"/>
      <path class="cls-14" d="m941.47,99h-3.02v-1.01h3.02v1.01Z"/>
      <path class="cls-25" d="m943.49,99v-1.01q2.02,0,2.02,1.01h-2.02Z"/>
      <path class="cls-14" d="m953.5,99c-.14-.94-.22-1.87-.29-2.81.58.22,1.15.5,1.73.79-.5.65-1.01,1.3-1.44,2.02Z"/>
      <path class="cls-13" d="m545.47,98.5v-2.52h-2.02c0-1.01,2.02-1.01,2.02-1.94.29.94.65,1.94,1.01,2.95v1.51h-1.01Z"/>
      <path class="cls-23" d="m548.5,97.99c-.72-.36-1.37-.72-2.02-1.01-.36-1.01-.72-2.02-1.01-2.95-.22-.72-.36-1.37-.5-2.02.5-.72,1.01-1.37,1.51-2.02,1.3,2.16,2.59,4.32,3.96,6.48-.36.65-.65,1.3-.94,2.02-.36-.22-.72-.36-1.01-.5Z"/>
      <path class="cls-15" d="m198.5,97.99v-2.02h.94v2.02h-.94Z"/>
      <path class="cls-14" d="m279,95.98h1.44v2.02c-.5-.72-1.01-1.37-1.44-2.02Z"/>
      <path class="cls-11" d="m546.48,97.99v-1.01c.65.29,1.3.65,2.02,1.01h-2.02Z"/>
      <path class="cls-13" d="m664.49,97.99q.72-3.31,2.02-3.96c-.72,1.3-1.37,2.59-2.02,3.96Z"/>
      <path class="cls-27" d="m819.5,97.99v-1.01h1.94q0,1.01-1.94,1.01Z"/>
      <path class="cls-6" d="m893.45,97.49c5.62-.22,11.3-.36,16.99-.5-5.33.29-10.66.65-15.98,1.01-.36-.22-.72-.36-1.01-.5Z"/>
      <path class="cls-13" d="m948.46,97.99v-1.01h2.02v1.01h-2.02Z"/>
      <path class="cls-1" d="m45.5,96.98v-2.02h.94c-.36.65-.65,1.3-.94,2.02Z"/>
      <path class="cls-13" d="m252.5,95.98v-1.01h1.94c-.29.58-.58,1.15-.79,1.73-.43-.29-.79-.5-1.15-.72Z"/>
      <path class="cls-21" d="m677.45,96.98c.29-1.37.65-2.66,1.01-3.96.14.65.29,1.3.5,1.94-.5.65-1.01,1.3-1.51,2.02Z"/>
      <path class="cls-13" d="m713.45,96.98h-2.95v-1.01h2.95v1.01Z"/>
      <path class="cls-11" d="m124.99,96.48c-.22-.86-.36-1.66-.5-2.45h1.01c-.22.79-.36,1.58-.5,2.45Z"/>
      <path class="cls-21" d="m160.49,95.98v-1.01c.65.29,1.3.65,2.02,1.01h-2.02Z"/>
      <path class="cls-13" d="m648,95.98c.43-1.15.94-2.3,1.44-3.46v3.46h-1.44Z"/>
      <path class="cls-21" d="m685.44,93.53h1.01v2.45c-.36-.86-.72-1.66-1.01-2.45Z"/>
      <path class="cls-5" d="m714.46,95.98v-1.94q1.01,0,1.01,1.94h-1.01Z"/>
      <path class="cls-8" d="m29.45,92.02h1.01v3.46c-.36-1.15-.72-2.3-1.01-3.46Z"/>
      <path class="cls-21" d="m45.5,94.97v-1.94h.94v1.94h-.94Z"/>
      <path class="cls-21" d="m515.45,94.97c.29-.5.65-1.01,1.01-1.44,1.01.14,2.02.29,3.02.5-1.37.29-2.74.58-4.03.94Z"/>
      <path class="cls-27" d="m919.44,94.03h2.02v.94q-2.02,0-2.02-.94Z"/>
      <path class="cls-5" d="m124.49,94.03c.29-.72.65-1.37,1.01-2.02v2.02h-1.01Z"/>
      <path class="cls-27" d="m136.44,92.02v2.02q-.94,0-.94-2.02h.94Z"/>
      <path class="cls-13" d="m596.45,92.02l1.51,1.51q-.5.22-1.51-1.51Z"/>
      <path class="cls-13" d="m828.5,94.03v-1.01h1.94v1.01h-1.94Z"/>
      <path class="cls-14" d="m833.47,92.02c.14.65.29,1.3.5,2.02h-1.51q0-2.02,1.01-2.02Z"/>
      <path class="cls-18" d="m922.46,94.03c.29-1.01.65-2.02,1.01-3.02.65.5,1.3,1.01,2.02,1.51l-3.02,1.51Z"/>
      <path class="cls-6" d="m685.44,93.53v-2.52c.29.79.65,1.66,1.01,2.52h-1.01Z"/>
      <path class="cls-25" d="m712.44,91.01c-.22.58-.43,1.22-.65,1.87-.43-.5-.86-.94-1.3-1.37.65-.22,1.3-.36,1.94-.5Z"/>
      <path class="cls-10" d="m45.5,93.02v-3.02h.94v3.02h-.94Z"/>
      <path class="cls-21" d="m594.5,91.01c.29.29.58.65.94,1.01q-.29.5-.94-1.01Z"/>
      <path class="cls-27" d="m952.49,93.02v-1.01h2.02v1.01h-2.02Z"/>
      <path class="cls-16" d="m779.47,92.02q-1.01-3.02-2.02-3.02v2.02c-.72-.5-1.37-1.01-2.02-1.51.29-.29.58-.58.86-.79-.65-.07-1.22-.14-1.8-.22h-1.01v-3.02c3.67-2.23,12.46-4.97,14.69-6.77,3.1-5.18,4.97-8.86,6.26-14.69-1.01-.22-2.02-.36-2.95-.5h-1.01c-1.37-.22-2.74-.36-4.03-.5h-9c-3.53-3.53-6.19-4.68-5.11-9.43q13.32,1.66,16.13.94c.65-.22,1.3-.36,2.02-.5.29-.22.65-.36,1.01-.5.65-.22,1.3-.36,1.94-.5,4.54-2.52,4.75-4.75,5.04-10.01q1.01,0,1.01-2.02h-1.01v-12.96h1.01v-3.02h-1.51v-.5c-.22-.72-.36-1.37-.5-2.02-1.01-2.02-2.02-4.03-3.02-5.98v-2.52c2.02-.36,4.03-.65,6.05-.94q.72,1.44,1.01.94,1.94,1.51,2.95,4.54c-.29.58-.58,1.15-.79,1.73.58.22,1.15.5,1.8.79v3.46c-.36.22-.65.43-.94.72.65.22,1.3.5,1.94.79v15.98h-1.01v5.04h1.01v1.01h3.02v-1.01c.94-.22,1.94-.36,2.95-.5v1.51c.65-.22,1.3-.36,2.02-.5-.36-.5-.72-1.01-1.01-1.51,2.02-.86,4.03-1.73,6.05-2.52q.94,0,.94-2.52h-.94q-1.94-3.89-1.94-6.12c3.74,2.3,5.69,3.53,9.94,4.18.94.29,1.94.65,2.95,1.01.65-.22,1.3-.36,2.02-.5,1.01.14,2.02.29,3.02.5.65.65,1.3,1.3,2.02,1.94v3.02c-1.44,1.87-1.66,2.16-4.03,2.52-.72.14-1.37.29-2.02.5q-4.97.5-6.98,1.44c-.72-.14-1.37-.29-2.02-.43v1.44c-1.66.65-3.31,1.3-4.97,2.02v-.5q0-1.01-2.02-1.01v1.01c-.36.65-.72,1.3-1.01,2.02h-1.01c-.72.29-1.37.65-2.02,1.01-2.38,1.3-4.68,2.59-6.98,3.96-.72-.22-1.37-.36-2.02-.5q-.65,1.37,0,2.02c-1.44,7.2-2.95,13.32-5.98,20.02-.72-.22-1.37-.36-2.02-.5q0,1.01,2.02,1.01c-2.23,3.46-4.32,8.06-7.99,10.01-.72.29-1.37.65-2.02,1.01-.36.14-.72.29-1.01.5h-2.95c-1.01-.22-2.02-.36-3.02-.5Z"/>
      <path class="cls-3" d="m29.45,92.02v-2.52c.29.79.65,1.66,1.01,2.52h-1.01Z"/>
      <path class="cls-21" d="m125.5,92.02v-2.02h1.01q0,2.02-1.01,2.02Z"/>
      <path class="cls-21" d="m513.5,92.02c-.29-.43-.58-.86-.79-1.3.58-.29,1.15-.5,1.73-.72-.36.65-.65,1.3-.94,2.02Z"/>
      <path class="cls-19" d="m777.46,91.01v-2.02q1.01,0,2.02,3.02c-.72-.36-1.37-.72-2.02-1.01Z"/>
      <path class="cls-14" d="m590.47,89.5l3.02,1.51h-3.02v-1.51Z"/>
      <path class="cls-2" d="m157.46,90h2.02v1.01q-2.02,0-2.02-1.01Z"/>
      <path class="cls-20" d="m508.46,85.46c.5,1.8,1.01,3.67,1.51,5.54h-1.51v-5.54Z"/>
      <path class="cls-21" d="m277.49,88.99q0-2.02,1.01-2.02v3.53c-.36-.5-.72-1.01-1.01-1.51Z"/>
      <path class="cls-6" d="m45.5,90c.29-1.87.58-3.67.94-5.47v5.47h-.94Z"/>
      <path class="cls-19" d="m152.5,89.5q0-1.51,1.01-1.51v2.02c-.36-.22-.72-.36-1.01-.5Z"/>
      <path class="cls-13" d="m268.49,90v-2.02h1.01v2.02h-1.01Z"/>
      <path class="cls-8" d="m774.5,88.49c.58.07,1.15.14,1.8.22-.29.22-.58.5-.86.79-.36-.36-.65-.72-.94-1.01Z"/>
      <path class="cls-21" d="m923.47,86.47v3.02h-1.01v-3.02h1.01Z"/>
      <path class="cls-16" d="m925.49,87.98c-.36-.72-.72-1.37-1.01-2.02v-1.94c.14-.72.29-1.37.5-2.02h1.51c.65.65,1.3,1.3,1.94,2.02l1.01,1.01c-.36.43-.72.94-1.01,1.44-.36.65-.65,1.3-.94,2.02v1.01c-.72-.5-1.37-1.01-2.02-1.51Z"/>
      <path class="cls-25" d="m157.46,88.99v-1.01h2.02v1.01h-2.02Z"/>
      <path class="cls-13" d="m522.5,88.99v-1.01h2.95v1.01h-2.95Z"/>
      <path class="cls-27" d="m565.49,87.98q1.51.72,1.01,1.01l-1.01-1.01Z"/>
      <path class="cls-25" d="m710.5,86.98c.43.65.94,1.3,1.44,2.02h-1.44v-2.02Z"/>
      <path class="cls-15" d="m780.48,88.99v-1.01h2.02v1.01h-2.02Z"/>
      <path class="cls-13" d="m830.45,87.98v1.01h-1.94v-1.01h1.94Z"/>
      <path class="cls-27" d="m814.46,86.98c.58.22,1.22.43,1.87.72-.29.22-.58.5-.86.79-.36-.5-.72-1.01-1.01-1.51Z"/>
      <path class="cls-13" d="m162.5,87.98q-2.02,0-2.02-1.01,2.02,0,2.02,1.01Z"/>
      <path class="cls-13" d="m333.5,87.98v-2.02h.94v2.02h-.94Z"/>
      <path class="cls-27" d="m649.44,87.98v-2.02h1.01q0,2.02-1.01,2.02Z"/>
      <path class="cls-15" d="m777.46,87.98v-1.01h2.02v1.01h-2.02Z"/>
      <path class="cls-13" d="m165.46,87.48v-1.51c.65.14,1.3.29,2.02.5-.72.29-1.37.65-2.02,1.01Z"/>
      <path class="cls-13" d="m204.48,82.01h1.01v4.97c-.36-1.66-.72-3.31-1.01-4.97Z"/>
      <path class="cls-5" d="m649.44,84.53v2.45h-.94c.29-.86.58-1.66.94-2.45Z"/>
      <path class="cls-13" d="m671.47,86.98c1.01-.36,2.02-.72,3.02-1.01v1.01h-3.02Z"/>
      <path class="cls-1" d="m674.5,86.98v-1.01c.65.14,1.3.29,1.94.5-.65.14-1.3.29-1.94.5Z"/>
      <path class="cls-25" d="m23.47,85.97v-2.95h1.01c-.36.94-.72,1.94-1.01,2.95Z"/>
      <path class="cls-13" d="m270.5,84.02h.94v1.94c-.65-.22-1.3-.36-1.94-.5.29-.5.65-1.01,1.01-1.44Z"/>
      <path class="cls-25" d="m653.47,85.97v-.94h2.02v.94h-2.02Z"/>
      <path class="cls-25" d="m820.44,85.03v.94h-1.94v-.94h1.94Z"/>
      <path class="cls-14" d="m923.47,85.97c.29-.65.65-1.3,1.01-1.94v1.94h-1.01Z"/>
      <path class="cls-13" d="m136.44,81.5h1.01v3.53c-.36-1.22-.72-2.38-1.01-3.53Z"/>
      <path class="cls-21" d="m252.5,85.03c.29-.36.58-.72.94-1.01q.5.22-.94,1.01Z"/>
      <path class="cls-21" d="m318.46,85.03v-2.02c.29.65.65,1.3,1.01,2.02h-1.01Z"/>
      <path class="cls-25" d="m574.49,84.02v1.01h-2.02v-1.01h2.02Z"/>
      <path class="cls-25" d="m672.48,85.03v-2.02h1.01v2.02h-1.01Z"/>
      <path class="cls-27" d="m681.48,85.03v-2.02h1.01v2.02h-1.01Z"/>
      <path class="cls-27" d="m782.5,85.03v-2.02h1.01v2.02h-1.01Z"/>
      <path class="cls-16" d="m901.44,85.03c-.36-.36-.65-.72-.94-1.01q-2.02-1.01-5.04-.5c-.72-.22-1.37-.36-2.02-.5-.36-.72-.72-1.37-1.01-2.02-.36-.72-.65-1.37-.94-2.02-.36-.86-.72-1.73-1.01-2.52.29-.29.58-.5.86-.72-.65-.29-1.3-.5-1.87-.72v-1.51c-.36-.86-.72-1.73-1.01-2.52-1.08-2.81-2.3-5.4-.58-8.14,6.77-.5,11.81-10.15,19.58-12.38.22.36.43.79.72,1.22l3.24-1.73c.29-.86.65-1.66,1.01-2.45q1.01,0,1.01-2.02h2.02q0-1.51,1.01-1.51,0,2.02,1.01,2.02v-3.53c.94-1.01,1.94-2.02,2.95-2.95.29-.5.65-1.01,1.01-1.51.65-.5,1.3-1.01,2.02-1.51.65-.5,1.3-1.01,2.02-1.51,2.3-1.37,4.61-2.66,6.98-3.96,1.01.29,2.02.58,3.02.94v-2.95h2.95c-.22-.72-.36-1.37-.5-2.02-.14-.43-.29-.79-.43-1.15-1.01,0-2.02.07-3.02.14h-2.02v1.51c-2.02,1.01-4.03,2.02-5.98,3.02-.72.14-1.37.29-2.02.5-7.49,0-5.69-6.77-10.8-10.01.22-1.22.5-2.38.79-3.53v.5q0,1.01,2.02,1.01v-1.51c.65.29,1.3.65,2.02,1.01v1.51c.65-.22,1.3-.36,1.94-.5,5.26,3.31,7.2,4.68,13.03,2.95v1.51h2.02v-1.94c3.31-1.37,6.62-2.74,10.01-4.03v2.02c.65-.22,1.3-.36,1.94-.5-.36-.5-.72-1.01-1.01-1.51q3.6,1.08,4.03,2.02c.29.65.65,1.3,1.01,2.02l1.51,3.46c-.22,1.3-.36,2.66-.5,4.03q-.5,1.94-2.02,2.45,0-1.94-1.01-1.94v2.45h-1.01c-.72.14-1.37.29-2.02.5h-3.96q0-1.01-2.02-1.01v2.02c-1.01.14-2.02.29-3.02.5-4.32,2.3-8.64,4.61-12.96,6.98v2.02q1.87.86,3.96.5.72,1.22,4.25,2.74c.22-.58.5-1.15.79-1.73,2.3,1.01,4.61,2.02,6.98,3.02q0,1.94,1.01,1.94v-1.44c5.69,3.6,8.64,6.98,8.21,14.18-4.32,2.95-8.14,3.82-13.18,5.26h-1.01c.29.65.65,1.3,1.01,2.02q.65,2.74,0,5.04c-.72.29-1.37.65-2.02,1.01.29.65.65,1.3,1.01,1.94-1.73,2.02-3.38,4.03-5.04,6.05h-2.02c-.65-.72-1.3-1.37-1.94-2.02v-2.52q.72-2.3.36-5.11c-3.17.65-6.26,1.37-9.36,2.09h-2.02c-.29-.58-.58-1.15-.79-1.73.58-.94,1.15-1.87,1.8-2.74.65.14,1.3.29,2.02.5-.36-.5-.72-1.01-1.01-1.51,2.95-.86,5.98-1.73,9-2.52.22.36.43.79.72,1.22,1.08-.29,2.16-.5,3.24-.72.29-.65.65-1.3,1.01-1.94,5.9-3.17,9.86-4.82,9.5-12.02-.5-.36-1.01-.72-1.51-1.01-.36-.5-.72-1.01-1.01-1.51-1.94,0-2.95-1.01-4.97-1.01-.72-.22-1.37-.36-2.02-.5h-3.02c-.36-.5-.72-1.01-1.01-1.51-.36.65-.65,1.3-.94,2.02h-1.01q0-1.51-1.01-1.51v2.02c-1.51,0-2.52,1.01-4.03,1.01q-1.66-.14-1.01.5c-2.02,1.01-4.03,2.02-5.98,3.02-.22-.5-.36-1.01-.5-1.51-.86,1.01-1.73,2.02-2.52,3.02-.65.43-1.3.94-1.94,1.44v-2.45c-.72.14-1.37.29-2.02.5v1.44c-.36.79-.72,1.66-1.01,2.52l-3.02,4.54q-1.01,0-1.01,1.94h1.01v2.02q-1.01,0-1.01,2.02h1.01c1.01,1.3,2.02,2.66,3.02,4.03v1.94l-1.3,6.05c-.94.29-1.87.65-2.74,1.01Z"/>
      <path class="cls-14" d="m928.44,84.02h2.02c-.36.29-.72.65-1.01,1.01l-1.01-1.01Z"/>
      <path class="cls-13" d="m816.48,84.02c.5-.72,1.01-1.37,1.51-2.02.14.65.29,1.3.5,2.02h-2.02Z"/>
      <path class="cls-25" d="m820.44,84.02q-.94,0-.94-2.02.94,0,.94,2.02Z"/>
      <path class="cls-2" d="m561.46,82.01c.58.22,1.22.43,1.87.72-.29.22-.58.5-.86.79-.36-.5-.72-1.01-1.01-1.51Z"/>
      <path class="cls-13" d="m512.5,81.5c.14-.36.29-.72.5-1.01.14.79.29,1.66.5,2.52q-1.01,0-1.01-1.51Z"/>
      <path class="cls-25" d="m583.49,83.02v-2.02h1.01v2.02h-1.01Z"/>
      <path class="cls-21" d="m811.44,83.02v-3.02h1.01v3.02h-1.01Z"/>
      <path class="cls-19" d="m808.49,81q1.51,0,2.02,1.51c-.72-.5-1.37-1.01-2.02-1.51Z"/>
      <path class="cls-13" d="m174.46,82.01q1.01-4.03,2.02-4.03v2.52c-.72.5-1.37,1.01-2.02,1.51Z"/>
      <path class="cls-10" d="m204.48,82.01v-2.02h1.01v2.02h-1.01Z"/>
      <path class="cls-17" d="m318.46,82.01v-1.01h2.02v1.01h-2.02Z"/>
      <path class="cls-13" d="m338.98,78.98c-.22,1.01-.36,2.02-.5,3.02h-1.01v-3.02h1.51Z"/>
      <path class="cls-27" d="m693.5,82.01c-.29-.43-.58-.86-.79-1.3.58-.29,1.15-.5,1.73-.72-.36.65-.65,1.3-.94,2.02Z"/>
      <path class="cls-15" d="m814.46,82.01v-1.01h2.02v1.01h-2.02Z"/>
      <path class="cls-13" d="m823.46,79.99c.65.5,1.3,1.01,2.02,1.51-.94-.14-1.87-.22-2.81-.29.22-.43.5-.86.79-1.22Z"/>
      <path class="cls-21" d="m924.98,82.01c.5-.86,1.01-1.73,1.51-2.52v2.52h-1.51Z"/>
      <path class="cls-9" d="m136.44,81.5v-3.53h1.01v3.53h-1.01Z"/>
      <path class="cls-13" d="m268.49,81v-2.02h2.02c-.72.65-1.37,1.3-2.02,2.02Z"/>
      <path class="cls-25" d="m580.97,80.5c.14-.5.29-1.01.5-1.51.14.58.29,1.22.43,1.87-.36-.14-.65-.29-.94-.36Z"/>
      <path class="cls-16" d="m654.48,108.5v-1.51c-.72.14-1.37.29-2.02.5-.36-.22-.72-.36-1.01-.5-.36-1.01-.72-2.02-1.01-3.02-1.73-3.17-2.45-4.46-2.45-7.99h1.44v-7.99q1.01,0,1.01-2.02h-1.01v-1.44c.65-.36,1.3-.72,2.02-1.01.29-.22.65-.36,1.01-.5q13.61-15.55,14.98-15.98c.65-.36,1.3-.72,2.02-1.01h2.02v-1.01c3.1-.36,6.26-.65,9.43-.94q.07-3.6-1.01-5.26c-.86-.14-1.66-.29-2.45-.36l-1.94,1.51c-.72.29-1.37.65-2.02,1.01h-2.02c-.72-.22-1.37-.36-2.02-.5l-.5-.5c-2.66-1.3-3.02-1.8-4.46-4.46-.36-1.73-.72-3.38-1.01-5.04h1.01c.65.14,1.3.29,2.02.5h2.95v1.01h4.03v-1.01l7.99-1.94q1.51-.79,1.01-1.01v-3.02c.14-.86.29-1.73.5-2.52.14-.86.29-1.66.5-2.45h1.01v-3.02h-1.01c.94-4.68,1.94-9.36,2.95-14.04.14-1.15.29-2.3.5-3.46v-7.99h2.52c-.36.22-.65.43-.94.72.65.22,1.3.5,1.94.79,2.81,9.14,4.18,16.63,1.22,25.7.22,2.16.43,4.39.65,6.62l4.1-.86c.14.5.29,1.01.5,1.51.5-.72,1.01-1.37,1.51-2.02h2.02v-1.51c.65-1.01,1.3-2.02,2.02-2.95q.94,0,.94-2.52h-.94c.07-.58.14-1.08.29-1.58l12.74,1.94c.29.5.58,1.08.94,1.66-.36.65-.72,1.3-1.01,1.94-6.19.65-11.59,4.68-16.99,7.56-2.45-.65-2.66-1.22-4.97,0,.94.65,1.94,1.3,2.95,1.94-.72.65-1.37,1.3-2.02,2.02-.65.14-1.3.29-1.94.5-.72.14-1.37.29-2.02.5v-1.51h-2.02v2.02h1.51c-.22.29-.36.65-.5,1.01-.58.29-1.15.58-1.66.86.36.22.72.43,1.15.65-.22.79-.36,1.58-.5,2.45v7.06c-.43,3.02-1.15,4.32.36,7.06,2.95,0,4.68-2.74,7.63-4.1h2.02c.65-.22,1.3-.36,2.02-.5.29.14.65.29,1.01.5.65.29,1.3.65,1.94,1.01.65.29,1.3.65,2.02,1.01q1.08,1.01,3.38,13.61,1.66.86,1.66,2.38v2.02h1.44c.14.5.29,1.01.5,1.51q1.51,1.51,2.02,3.53v1.94c-.36.5-.72,1.01-1.01,1.51q-.79,1.22-5.98,3.02c-.72.14-1.37.29-2.02.5-10.15-.43-9.65-8.64-12.96-17.5-.72-.5-1.37-1.01-2.02-1.51-4.03,1.22-4.32,5.18-5.04,9v2.52c.29.79.65,1.58,1.01,2.45.14,1.15.29,2.3.5,3.53.14,1.44.29,2.95.5,4.46v2.02c-.5.29-1.01.65-1.51,1.01-.22-1.01-.36-2.02-.5-3.02q-.94,0-.94,2.02-1.01,0-1.01-2.02c-.86.5-1.73,1.01-2.52,1.51l-.5-.5c-.36-.65-.72-1.3-1.01-1.94-.22-.5-.36-1.01-.5-1.51l-1.51-4.54c.5-.72,1.01-1.37,1.51-2.02-.22-.65-.36-1.3-.5-1.94l.22-5.83c-.79-.29-1.51-.5-2.23-.72-.65-.22-1.3-.36-1.94-.5-1.01.29-2.02.65-3.02,1.01-3.17,1.87-4.18,3.6-4.97,7.06q-1.3.65-2.02,3.96c-2.66,3.46-5.33,6.98-7.99,10.51h-2.02Zm13.97-29.52v1.51c5.9,0,10.08.22,11.02-6.48-.22-.5-.36-1.01-.5-1.51l-3.46-4.54h-2.02c-1.51,3.31-3.02,6.62-4.54,10.01-.22.29-.36.65-.5,1.01Z"/>
      <path class="cls-25" d="m796.46,80.5v.5q-2.02,0-2.02-1.01c.65.14,1.3.29,2.02.5Z"/>
      <path class="cls-21" d="m807.48,78.48v2.52h-1.01v-2.52h1.01Z"/>
      <path class="cls-8" d="m204.48,79.99v-3.96h1.01v3.96h-1.01Z"/>
      <path class="cls-14" d="m297.5,78.98v-2.02c.65.14,1.3.29,1.94.5l-1.94,1.51Z"/>
      <path class="cls-15" d="m312.48,78.98v-1.01h2.02v1.01h-2.02Z"/>
      <path class="cls-13" d="m668.95,77.98c-.22.29-.36.65-.5,1.01q-1.94,0-1.94-1.01h2.45Z"/>
      <path class="cls-25" d="m688.46,76.97h2.02c-.5.65-1.01,1.3-1.51,2.02-.22-.72-.36-1.37-.5-2.02Z"/>
      <path class="cls-3" d="m136.44,77.98v-1.94c.29.65.65,1.3,1.01,1.94h-1.01Z"/>
      <path class="cls-25" d="m514.44,77.98v-1.01h2.02v1.01h-2.02Z"/>
      <path class="cls-3" d="m905.47,77.98v-1.94q1.01,0,1.01,1.94h-1.01Z"/>
      <path class="cls-25" d="m934.49,76.03c.65-.36,1.3-.72,2.02-1.01-.36.94-.72,1.94-1.01,2.95-.36-.65-.72-1.3-1.01-1.94Z"/>
      <path class="cls-13" d="m268.49,76.97v-1.94c.65.14,1.3.29,2.02.5-.72.43-1.37.94-2.02,1.44Z"/>
      <path class="cls-13" d="m281.45,76.97v-1.94h1.01v1.94h-1.01Z"/>
      <path class="cls-17" d="m540.5,76.97v-1.94h.94v1.94h-.94Z"/>
      <path class="cls-13" d="m688.46,76.97q-2.02,0-2.02-.94,2.02,0,2.02.94Z"/>
      <path class="cls-15" d="m690.48,76.97v-1.94h1.01v1.94h-1.01Z"/>
      <path class="cls-21" d="m791.5,76.97v-.94h1.94v.94h-1.94Z"/>
      <path class="cls-4" d="m196.99,76.46c-.22-.86-.36-1.66-.5-2.45h1.01c-.22.79-.36,1.58-.5,2.45Z"/>
      <path class="cls-21" d="m889.49,75.02c.58.22,1.22.43,1.87.72-.29.22-.58.43-.86.72-.36-.5-.72-1.01-1.01-1.44Z"/>
      <path class="cls-3" d="m204.48,76.03v-4.03c.29,1.3.65,2.66,1.01,4.03h-1.01Z"/>
      <path class="cls-13" d="m296.5,74.02c.29-.22.65-.36,1.01-.5v2.52q-1.01,0-1.01-2.02Z"/>
      <path class="cls-25" d="m512.5,75.02c.94-.22,1.94-.36,2.95-.5v1.51c-1.01-.36-2.02-.72-2.95-1.01Z"/>
      <path class="cls-25" d="m934.49,76.03h-2.02c.14-.72.29-1.37.5-2.02.5.65,1.01,1.3,1.51,2.02Z"/>
      <path class="cls-14" d="m51.48,75.02v-1.01h3.02v1.01h-3.02Z"/>
      <path class="cls-14" d="m58.46,75.02v-2.02h2.02c-.72.65-1.37,1.3-2.02,2.02Z"/>
      <path class="cls-14" d="m279.5,75.02v-2.02q.94,0,.94,2.02h-.94Z"/>
      <path class="cls-21" d="m286.49,75.02c-.29-.79-.58-1.58-.79-2.3.58-.29,1.15-.5,1.8-.72v3.02h-1.01Z"/>
      <path class="cls-13" d="m523.44,74.02c.65-.22,1.3-.36,2.02-.5v1.51q-2.02,0-2.02-1.01Z"/>
      <path class="cls-13" d="m703.44,75.02v-1.01h2.02v1.01h-2.02Z"/>
      <path class="cls-25" d="m183.46,74.52c-.36-.29-.65-.58-.94-.79.65.07,1.3.14,1.94.29-.36.14-.72.29-1.01.5Z"/>
      <path class="cls-3" d="m423.5,74.52v-1.51h1.94l-1.94,1.51Z"/>
      <path class="cls-14" d="m23.47,73.01h2.02q0,1.01-2.02,1.01v-1.01Z"/>
      <path class="cls-25" d="m26.5,73.01v-1.01h1.01q-.79,1.51-1.01,1.01Z"/>
      <path class="cls-2" d="m196.49,74.02c.29-1.01.65-2.02,1.01-3.02v3.02h-1.01Z"/>
      <path class="cls-21" d="m310.46,73.01h4.03v1.01h-4.03v-1.01Z"/>
      <path class="cls-13" d="m581.47,74.02v-4.03h1.01v4.03h-1.01Z"/>
      <path class="cls-13" d="m679.46,74.02c-.22-.5-.36-1.01-.5-1.51.29-.14.58-.29.94-.43l-.43,1.94Z"/>
      <path class="cls-1" d="m23.47,73.01v-.5c1.01-.22,2.02-.36,3.02-.5v1.01h-3.02Z"/>
      <path class="cls-10" d="m151.49,73.01v-1.01h2.95v1.01h-2.95Z"/>
      <path class="cls-17" d="m916.49,72c.29-.36.65-.72,1.01-1.01.29.5.65,1.01,1.01,1.51-.72-.22-1.37-.36-2.02-.5Z"/>
      <path class="cls-13" d="m187.49,72.5v-1.51h2.02c-.72.5-1.37,1.01-2.02,1.51Z"/>
      <path class="cls-25" d="m31.46,72v-2.02h1.01v2.02h-1.01Z"/>
      <path class="cls-10" d="m436.46,72v-2.02h1.01q0,2.02-1.01,2.02Z"/>
      <path class="cls-14" d="m902.45,69.98v2.02h-1.01q0-2.02,1.01-2.02Z"/>
      <path class="cls-25" d="m926.5,72v-1.01h1.94v1.01h-1.94Z"/>
      <path class="cls-25" d="m61.49,70.99c-.36-.72-.72-1.37-1.01-2.02.65.14,1.3.29,2.02.5-.36.5-.72,1.01-1.01,1.51Z"/>
      <path class="cls-27" d="m136.94,68.98c-.22.65-.36,1.3-.5,2.02q-.94,0-.94-2.02h1.44Z"/>
      <path class="cls-15" d="m183.46,70.99v-1.01h2.02v1.01h-2.02Z"/>
      <path class="cls-21" d="m276.48,70.99q0-1.01,2.02-1.01v1.01h-2.02Z"/>
      <path class="cls-27" d="m289.44,70.99q-.94,0-.94-2.02.94,0,.94,2.02Z"/>
      <path class="cls-13" d="m703.44,69.98v-.5c.65.5,1.3,1.01,2.02,1.51-.72-.36-1.37-.72-2.02-1.01Z"/>
      <path class="cls-13" d="m144.5,68.47c.65-.22,1.3-.36,1.94-.5v2.52c-.65-.72-1.3-1.37-1.94-2.02Z"/>
      <path class="cls-27" d="m129.46,69.98v-2.95h1.01v2.95h-1.01Z"/>
      <path class="cls-21" d="m190.44,69.98c.29-.72.65-1.37,1.01-2.02v.5c-.36.5-.72,1.01-1.01,1.51Z"/>
      <path class="cls-25" d="m269.5,69.98c.43-.72.94-1.37,1.44-2.02.14.65.29,1.3.5,2.02h-1.94Z"/>
      <path class="cls-25" d="m537.48,68.47c.29-.22.65-.36,1.01-.5v2.02q-1.01,0-1.01-1.51Z"/>
      <path class="cls-27" d="m549.5,69.98q-1.01,0-1.01-2.02,1.01,0,1.01,2.02Z"/>
      <path class="cls-21" d="m701.5,68.98c.65.14,1.3.29,1.94.5v.5c-.65-.36-1.3-.72-1.94-1.01Z"/>
      <path class="cls-13" d="m926.5,68.47c1.66-.5,3.31-1.01,4.97-1.44-.36.65-.72,1.3-1.01,1.94-1.08.22-2.16.43-3.24.72-.29-.43-.5-.86-.72-1.22Z"/>
      <path class="cls-25" d="m930.46,68.98h3.02v1.01h-3.02v-1.01Z"/>
      <path class="cls-5" d="m936.5,67.97v2.02c-.36-.72-.72-1.37-1.01-2.02h1.01Z"/>
      <path class="cls-14" d="m293.47,69.48v-2.45l1.51.43c-.5.65-1.01,1.3-1.51,2.02Z"/>
      <path class="cls-25" d="m293.47,67.03v1.94h-1.01q0-1.94,1.01-1.94Z"/>
      <path class="cls-13" d="m584.5,67.97q1.94,0,1.94,1.01-1.94,0-1.94-1.01Z"/>
      <path class="cls-7" d="m696.46,68.98c.65-.36,1.3-.72,2.02-1.01v1.01h-2.02Z"/>
      <path class="cls-10" d="m698.47,68.98v-1.01c.65.14,1.3.29,2.02.5-.72.14-1.37.29-2.02.5Z"/>
      <path class="cls-11" d="m191.45,68.47v-2.95h1.01v2.95h-1.01Z"/>
      <path class="cls-21" d="m567.5,66.02h1.94v2.45c-.65-.86-1.3-1.66-1.94-2.45Z"/>
      <path class="cls-5" d="m204.48,67.97v-9h1.01c-.36,2.95-.72,5.98-1.01,9Z"/>
      <path class="cls-9" d="m286.49,67.03h2.02q0,.94-2.02.94v-.94Z"/>
      <path class="cls-25" d="m306.5,67.97v-.94h2.95v.94h-2.95Z"/>
      <path class="cls-13" d="m543.46,67.97l1.51-1.94c.14.65.29,1.3.5,1.94h-2.02Z"/>
      <path class="cls-15" d="m584.5,67.97q-1.01,0-1.01-1.94,1.01,0,1.01,1.94Z"/>
      <path class="cls-10" d="m673.49,67.97v-.94c.65.29,1.3.58,2.02.94h-2.02Z"/>
      <path class="cls-17" d="m796.46,67.97v-1.94h1.01v1.94h-1.01Z"/>
      <path class="cls-21" d="m902.45,66.02v1.94h-1.01q0-1.94,1.01-1.94Z"/>
      <path class="cls-13" d="m346.46,67.46v-1.44c.72-.29,1.44-.58,2.23-.79.22.43.5.86.79,1.3-1.01.29-2.02.58-3.02.94Z"/>
      <path class="cls-27" d="m197.5,67.03v-13.03c.29-.72.65-1.37,1.01-2.02.5.22,1.08.43,1.66.72-2.16,4.32-1.51,9.5-1.66,14.33h-1.01Z"/>
      <path class="cls-21" d="m286.49,65.02v2.02q-1.01,0-1.01-2.02h1.01Z"/>
      <path class="cls-21" d="m667.44,67.03c.65-.5,1.3-1.01,2.02-1.51v.5c-.72.29-1.37.65-2.02,1.01Z"/>
      <path class="cls-13" d="m6.48,66.02c.5-.72,1.01-1.37,1.51-2.02.14.65.29,1.3.5,2.02h-2.02Z"/>
      <path class="cls-27" d="m31.46,66.02v-2.02h1.01c-.36.65-.72,1.3-1.01,2.02Z"/>
      <path class="cls-13" d="m69.48,66.02v-1.01h2.02v1.01h-2.02Z"/>
      <path class="cls-15" d="m173.45,64.01v2.02h-1.01v-2.02h1.01Z"/>
      <path class="cls-13" d="m270.5,64.01c.65.14,1.3.29,1.94.5-.43.36-.86.79-1.3,1.22l-.65-1.73Z"/>
      <path class="cls-14" d="m309.46,66.02v-2.02h1.01v2.02h-1.01Z"/>
      <path class="cls-14" d="m569.45,66.02v-2.02h1.01v2.02h-1.01Z"/>
      <path class="cls-27" d="m577.44,66.02v-1.01q2.02,0,2.02,1.01h-2.02Z"/>
      <path class="cls-21" d="m669.46,66.02v-.5c.65-.22,1.3-.36,2.02-.5v1.01h-2.02Z"/>
      <path class="cls-25" d="m61.49,65.02v-1.01h2.02v1.01h-2.02Z"/>
      <path class="cls-13" d="m129.46,65.02v-2.02h1.01q0,2.02-1.01,2.02Z"/>
      <path class="cls-1" d="m31.46,64.01c.29-1.22.65-2.38,1.01-3.53v3.53h-1.01Z"/>
      <path class="cls-27" d="m173.45,64.01c.65-.36,1.3-.72,2.02-1.01v1.01h-2.02Z"/>
      <path class="cls-13" d="m254.45,58.46c.65,1.8,1.3,3.67,2.02,5.54l-2.16-.43c0-1.73.07-3.46.14-5.11Z"/>
      <path class="cls-25" d="m555.48,63c-.36.29-.72.65-1.01,1.01-.14-.65-.22-1.22-.29-1.8.43.22.86.5,1.3.79Z"/>
      <path class="cls-26" d="m777.46,63h6.05v1.01c-2.02-.36-4.03-.72-6.05-1.01Z"/>
      <path class="cls-10" d="m783.5,64.01v-1.01h2.95v1.01h-2.95Z"/>
      <path class="cls-1" d="m786.46,64.01v-1.01c1.3.14,2.66.29,4.03.5-1.37.14-2.74.29-4.03.5Z"/>
      <path class="cls-15" d="m74.45,63v-1.01h2.02v1.01h-2.02Z"/>
      <path class="cls-10" d="m162.5,60.48v2.52h-1.01v-2.52h1.01Z"/>
      <path class="cls-16" d="m186.48,112.46c-.29-.43-.58-.86-.79-1.22-1.08.22-2.16.5-3.24.79v-1.01q-1.94,0-1.94,1.01c-1.01-.86-2.02-1.73-3.02-2.52q-5.33-3.82-10.01-5.54,0-.94-3.02-.94v.94c-2.02,1.01-4.03,2.02-5.98,3.02q0-1.01-2.02-1.01v1.01c-.36.14-.72.29-1.01.5-.65.14-1.3.29-1.94.5h-4.03q0-1.01-2.02-1.01v1.01h-4.97c-2.23-1.51-4.39-3.02-6.55-4.54q-1.94,2.02-6.48,3.53c-.36-.5-.72-1.01-1.01-1.51-1.01-2.16-2.02-4.32-2.95-6.48q1.01,0,1.01-2.02h-1.51v-.5c.14-.86.29-1.66.5-2.45v-2.02q1.01,0,1.01-2.02h-1.01c1.3-6.7,2.59-13.39,3.96-20.02h1.01v-2.95h-1.01v-2.02q1.01,0,1.01-2.02h-1.01c-.86-4.54-1.73-9.07-2.52-13.54.14-.86.29-1.66.5-2.45-.22-1.51-.36-3.02-.5-4.54,1.66-6.98,3.67-13.18,9.5-18h2.02q.58-1.44,0-2.02,2.02-1.94,5.04-2.95v-.5h2.95v-2.02c.65-.36,1.3-.72,2.02-1.01q1.22.22,2.02-1.01c8.5-6.34,23.76-7.27,33.98-7.99q0,1.01,2.02,1.01v-1.01c.65.29,1.3.65,2.02,1.01.65.14,1.3.29,1.94.5,6.19,1.73,7.13,4.1,10.01,9.5.29.65.65,1.3,1.01,2.02,1.73,7.06,2.74,12.74,3.02,20.02v41.98c.29,1.66.65,3.31,1.01,4.97-.5,3.96-1.01,7.99-1.51,12.02-1.15.58-2.23,1.15-3.31,1.73.22.86.5,1.8.79,2.74-1.51,1.01-3.02,2.02-4.46,3.02q-.5-.29-1.51,1.51h-1.01c-.43-.29-.86-.58-1.3-.79-.29.72-.5,1.51-.72,2.3-2.02.94-4.03,1.94-5.98,2.95h0Zm-23.98-49.46c.79-.22,1.58-.36,2.45-.5q-.43-3.6-1.51-4.03c-.36.29-.65.65-.94,1.01v3.53h0Zm12.96,1.01q.5,3.46,2.45,6.84c.5-.65,1.01-1.3,1.58-1.87.29-.86.65-1.66,1.01-2.45v-2.02c-.36-.72-.72-1.37-1.01-2.02q-2.95-.5-4.03.5v1.01h0Zm-26.5,3.02c1.66-.86,3.31-1.73,4.97-2.52v-4.03c-1.94,1.01-3.74,3.53-4.97,4.03v2.52h0Zm-9.5,31.46l3.02,1.51h7.99c3.31-.86,6.62-1.73,10.01-2.52v-2.52c.65.29,1.3.65,2.02,1.01l4.97,1.51h3.02c.94-1.15,1.94-2.3,2.95-3.46.65.29,1.3.58,2.02.94,3.89,1.3,7.99,3.67,12.02,2.52h1.01q.43-1.66,2.52-2.88c2.66-5.04,4.25-9,5.47-14.62.14-.86.29-1.73.5-2.52v-1.01c-.22-.86-.36-1.66-.5-2.45.29-1.01.65-2.02,1.01-3.02v-18.5c-.36-1.15-.72-2.3-1.01-3.46-.5-5.9-1.01-11.74-1.51-17.57-.22-1.87-.36-3.67-.5-5.47l-3.02-12.53-1.94-.43c-.72-.22-1.37-.36-2.02-.5h-1.01c-.72-.22-1.37-.36-2.02-.5h-4.97c-1.01.14-2.02.29-3.02.5-7.7,1.37-12.17,2.66-19.01,6.48-.72.5-1.37,1.01-2.02,1.51-1.37,1.15-2.66,2.3-3.96,3.46-.36.29-.72.65-1.01,1.01-.72,1.01-1.37,2.02-2.02,3.02-.72.79-1.37,1.66-2.02,2.52-.36.29-.72.58-1.01.94l-1.94,4.54c-.36.29-.72.65-1.01,1.01-.36,1.01-.72,2.02-1.01,3.02v4.46h2.02c.65-.22,1.3-.36,1.94-.5,6.55-4.46,7.49-6.12,13.03-9.5.65-.22,1.3-.36,2.02-.5.65-.36,1.3-.72,2.02-1.01.65.14,1.3.29,1.94.5.65.14,1.3.29,2.02.5.79.5,1.66,1.01,2.52,1.51.14,1.51.29,3.02.5,4.54-.36,1.15-.72,2.3-1.01,3.46-.36,1.01-.72,2.02-1.01,3.02v6.98q1.73.5,3.02,2.02l1.94,1.51c.65.29,1.3.65,2.02,1.01h1.01q4.03-.07,5.98-1.01c.65.14,1.3.29,2.02.5,4.32,2.59,5.83,3.46,7.99,7.99h1.01v2.95h-1.01c-.36.5-.72,1.01-1.01,1.51-.36.29-.65.65-.94,1.01-.72.5-1.37,1.01-2.02,1.51l-3.02,1.51c-.36.14-.72.29-1.01.5-2.38,1.94-4.68,3.96-6.98,5.98-.72.5-1.37,1.01-2.02,1.51-2.38,1.44-4.68,2.95-6.98,4.46-.72.29-1.37.65-2.02,1.01q-1.01,1.01-2.95,1.01l-3.02,1.51v1.01q-2.02,0-2.02-1.01h-3.96c-.36-.22-.72-.36-1.01-.5-8.93-5.9.94-10.94,1.94-16.49h-2.95q-1.51,0-5.04-2.52c-.65-.72-1.3-1.37-1.94-2.02-.14-2.09-.22-4.18-.29-6.26,1.37-1.08,2.81-2.16,4.25-3.24.29-.36.65-.65,1.01-.94,1.01-.36,2.02-.72,3.02-1.01.29-.22.65-.36,1.01-.5q4.03-2.66,6.7-6.34c-.22-1.22-.43-2.45-.65-3.6-2.02.29-4.03.58-6.05.94-1.01.14-2.02.29-3.02.5-.72.14-1.37.29-2.02.5-.72.14-1.37.29-2.02.5-2.02.94-4.03,1.94-5.98,2.95v5.04c-.36.79-.72,1.58-1.01,2.45-.86,3.17-1.73,6.34-2.52,9.5-.22.65-.36,1.3-.5,2.02v5.04c.29.65.65,1.3,1.01,1.94v7.06c-.36,2.3-.72,4.61-1.01,6.98v2.02c-.14.58-.22,1.15-.29,1.8.72.72,1.51,1.44,2.3,2.16.29.14.65.29,1.01.5Z"/>
      <path class="cls-15" d="m584.5,61.99v1.01h-2.02v-1.01h2.02Z"/>
      <path class="cls-25" d="m297.5,62.5q-.65-.65.94-1.51c-.36.5-.65,1.01-.94,1.51Z"/>
      <path class="cls-1" d="m19.44,59.47v2.52q-.94,0-.94-2.52h.94Z"/>
      <path class="cls-13" d="m59.47,61.99v-1.01h2.02v1.01h-2.02Z"/>
      <path class="cls-10" d="m566.5,61.99v-2.02h1.01c-.36.65-.72,1.3-1.01,2.02Z"/>
      <path class="cls-17" d="m575.5,58.46c.65.29,1.3.65,1.94,1.01-.29.72-.5,1.44-.72,2.23-.72-.5-1.37-1.01-2.02-1.51.22-.58.5-1.15.79-1.73Z"/>
      <path class="cls-13" d="m778.46,61.99v-1.01h2.02v1.01h-2.02Z"/>
      <path class="cls-13" d="m286.99,61.49c-.5-.72-1.01-1.37-1.51-2.02.65-.22,1.3-.36,2.02-.5-.22.79-.36,1.66-.5,2.52Z"/>
      <path class="cls-13" d="m905.47,61.49c.29-.86.65-1.73,1.01-2.52v2.02c-.36.14-.72.29-1.01.5Z"/>
      <path class="cls-13" d="m32.47,60.98v-2.02q1.01,0,1.01,2.02h-1.01Z"/>
      <path class="cls-25" d="m180.5,60.98v-2.02h.94v2.02h-.94Z"/>
      <path class="cls-21" d="m306.5,60.98c.29-.36.58-.72.94-1.01q.5.22-.94,1.01Z"/>
      <path class="cls-13" d="m796.46,60.98v-2.02h1.01v2.02h-1.01Z"/>
      <path class="cls-18" d="m906.48,60.98v-2.02h2.02v.5c-.72.5-1.37,1.01-2.02,1.51Z"/>
      <path class="cls-12" d="m802.44,60.48q-.65-.65,0-2.02c.65.14,1.3.29,2.02.5-.72.5-1.37,1.01-2.02,1.51Z"/>
      <path class="cls-14" d="m148.46,58.97c.29-.36.65-.65,1.01-.94q-.79,1.44-1.01.94Z"/>
      <path class="cls-8" d="m464.47,59.98v-2.95h1.01v2.95h-1.01Z"/>
      <path class="cls-27" d="m549.5,57.02l.65,2.16h-2.45c.58-.72,1.15-1.44,1.8-2.16Z"/>
      <path class="cls-7" d="m566.5,59.98c.29-.65.65-1.3,1.01-1.94v1.94h-1.01Z"/>
      <path class="cls-13" d="m569.45,59.98v-1.94h1.01v1.94h-1.01Z"/>
      <path class="cls-13" d="m903.46,58.03q1.01,0,1.01,1.94-1.01,0-1.01-1.94Z"/>
      <path class="cls-13" d="m162.5,59.47c-.36-.29-.65-.58-.94-.79.58-.07,1.22-.14,1.87-.22-.36.29-.65.65-.94,1.01Z"/>
      <path class="cls-27" d="m152.5,57.02c.29-.22.65-.36,1.01-.5v2.45q-1.01,0-1.01-1.94Z"/>
      <path class="cls-27" d="m172.44,58.03v.94h-1.94v-.94h1.94Z"/>
      <path class="cls-25" d="m173.45,58.03h2.02q0,.94-2.02.94v-.94Z"/>
      <path class="cls-6" d="m204.48,58.97v-7.99h1.01v7.99h-1.01Z"/>
      <path class="cls-14" d="m558.5,58.03c-.36.29-.72.58-1.01.94q-.5-.29,1.01-.94Z"/>
      <path class="cls-27" d="m669.46,58.97v-.94h2.02v.94h-2.02Z"/>
      <path class="cls-14" d="m906.48,58.97v-1.44c.65-.22,1.3-.36,2.02-.5v1.94h-2.02Z"/>
      <path class="cls-13" d="m.94,54.5q1.01,2.02.5,3.96l-1.44-1.44c.29-.86.58-1.73.94-2.52Z"/>
      <path class="cls-13" d="m64.94,55.01v1.51c-.36.5-.72,1.01-1.01,1.51l-.43-3.02h1.44Z"/>
      <path class="cls-14" d="m172.44,58.03v-1.01c.65.29,1.3.65,2.02,1.01h-2.02Z"/>
      <path class="cls-6" d="m551.45,57.02h2.02v1.01q-2.02,0-2.02-1.01Z"/>
      <path class="cls-13" d="m677.45,58.03q-1.94,0-1.94-1.01,1.94,0,1.94,1.01Z"/>
      <path class="cls-13" d="m781.49,58.03v-1.01h2.02v1.01h-2.02Z"/>
      <path class="cls-10" d="m910.44,58.03c.79-1.01,1.66-2.02,2.52-3.02.14.5.29,1.01.5,1.51l-3.02,1.51Z"/>
      <path class="cls-25" d="m163.44,57.02v-1.01h3.02v1.01h-3.02Z"/>
      <path class="cls-14" d="m170.5,55.51l1.94,1.51h-1.94v-1.51Z"/>
      <path class="cls-13" d="m801.5,57.02c-.29-.43-.58-.86-.79-1.3.58-.29,1.15-.5,1.73-.72-.36.65-.65,1.3-.94,2.02Z"/>
      <path class="cls-15" d="m903.46,57.02c.14-.72.29-1.37.5-2.02.5.65,1.01,1.3,1.51,2.02h-2.02Z"/>
      <path class="cls-13" d="m689.47,55.01c-.22.5-.36,1.01-.5,1.51-.43-.22-.79-.43-1.15-.65.5-.29,1.08-.58,1.66-.86Z"/>
      <path class="cls-21" d="m271.44,55.01h2.02v1.01q-2.02,0-2.02-1.01Z"/>
      <path class="cls-21" d="m550.44,56.02c.29-.72.65-1.37,1.01-2.02v2.02h-1.01Z"/>
      <path class="cls-16" d="m36,112.03c-1.87-5.54-3.74-11.09-5.54-16.56v-3.46c-.36-.86-.72-1.73-1.01-2.52-.36-.72-.65-1.44-.94-2.16-1.73-.5-3.38-.94-5.04-1.37.29-1.01.65-2.02,1.01-2.95h-1.01v2.45q-3.17-5.62-7.49-9.94c-2.16.29-4.32.58-6.48.94-1.37-5.33-2.3-5.62-6.84-8.5-.07-.86-.14-1.66-.22-2.45-.36-2.02-.72-4.03-1.01-6.05v-1.01q.5-1.94-.5-3.96c.14-2.88.29-5.69.5-8.5q1.01,0,1.01-2.02h-1.01v-1.01h2.02c2.02.72,2.52,2.02,5.04,3.53h2.95q5.11-3.96,7.99-5.04,0,1.51,1.01,1.51v-2.02q3.02-.5,13.25-5.47c.22-2.52.5-5.04.79-7.49-.22-.86-.36-1.73-.5-2.52q-.29-4.75,1.51-12.96c.29-2.74.65-5.4,1.01-8.06h.94v.5q0,1.01,2.02,1.01v-1.51c2.3,1.3,4.61,2.66,6.98,4.03,3.46,2.38,4.03,4.03,10.51,9-.22.14-.36.29-.5.5-.58.22-1.15.43-1.73.72.22,1.37.43,2.81.72,4.25h1.01v1.01q-1.01,0-1.01,2.02h1.01v2.02q-1.01,0-1.01,2.02h1.01v2.45c-.36.5-.72,1.01-1.01,1.51h2.02v-1.51c1.3.29,2.66.65,4.03,1.01.65.14,1.3.29,2.02.5,1.3.14,2.59.29,3.96.5-.36-.5-.72-1.01-1.01-1.51,3.96-.86,7.99-1.66,12.02-2.45,1.3.14,2.59.29,3.96.5h2.02q2.74.22,4.54,1.94c.14.65.29,1.3.5,2.02-.36.29-.72.65-1.01,1.01q-1.51.72-1.01,1.01c-3.53,4.46-7.27,7.2-12.02,10.51-.72-.22-1.37-.36-2.02-.5v1.51c-.36.14-.65.29-.94.5h-2.02v1.44l-3.02,1.51h-1.51c-.22.65-.36,1.3-.5,2.02-.22.29-.36.65-.5,1.01h-1.44l.43,3.02c.29-.5.65-1.01,1.01-1.51.14.65.29,1.3.5,1.94,2.66.29,5.33.65,7.99,1.01.65.14,1.3.29,2.02.5h1.01c.65.29,1.3.65,2.02,1.01.65,1.66,1.37,3.31,2.09,4.97-2.38.65-4.75,1.3-7.13,2.02-1.37.14-2.66.29-3.96.5q-2.02,0-7.49,3.02l-1.51,1.51h-2.02v2.02c-3.1,3.1-6.84,4.18-10.94,5.83l-1.08,3.67c-.36,1.8-.65,3.6-.94,5.47v6.98c-.14.65-.22,1.3-.29,2.02-4.9,3.31-5.54,7.78-7.27,13.03h-1.94Zm15.48-63c.29,2.16.65,4.32,1.01,6.48,7.7-3.82,15.91-8.28,20.09-15.91-.36-.22-.72-.43-1.08-.58h-5.04c-.72.14-1.37.29-2.02.5-7.06.14-11.02,0-12.96,7.49v2.02h0Zm-29.02,22.46l1.01,1.01c1.01-.22,2.02-.36,3.02-.5h1.01c.43-.22.94-.36,1.44-.5.79-1.87,1.66-3.67,2.52-5.47v-2.02c.29-1.22.65-2.38,1.01-3.53v-1.51c-.22-.86-.36-1.66-.5-2.45-.22-.86-.36-1.73-.5-2.52-.36-.72-.72-1.37-1.01-2.02-6.05,1.01-7.63,2.66-11.02,7.49v2.52q1.51,2.52,2.02,6.98c.29.79.65,1.66,1.01,2.52Z"/>
      <path class="cls-21" d="m167.47,54v1.01h-2.02v-1.01h2.02Z"/>
      <path class="cls-10" d="m563.47,55.01v-1.01h3.02v1.01h-3.02Z"/>
      <path class="cls-13" d="m665.5,55.01v-2.02h1.01v2.02h-1.01Z"/>
      <path class="cls-6" d="m456.48,54.5v-3.02h1.01v3.02h-1.01Z"/>
      <path class="cls-5" d="m555.48,54.5c.29-.86.65-1.73,1.01-2.52v2.02c-.36.14-.72.29-1.01.5Z"/>
      <path class="cls-13" d="m65.45,54c.14-.72.29-1.37.5-2.02h1.51c-.72.65-1.37,1.3-2.02,2.02Z"/>
      <path class="cls-13" d="m140.47,51.98v2.02q-1.01,0-1.01-2.02h1.01Z"/>
      <path class="cls-25" d="m258.48,52.49c.29-.22.65-.36,1.01-.5v2.02q-1.01,0-1.01-1.51Z"/>
      <path class="cls-14" d="m556.49,54v-2.02h1.01c-.36.65-.72,1.3-1.01,2.02Z"/>
      <path class="cls-17" d="m690.48,53.5c-.22.14-.36.29-.5.5h-1.51v-2.02h2.02v1.51Z"/>
      <path class="cls-21" d="m814.46,54c.29-.72.65-1.37,1.01-2.02v1.01c-.36.29-.72.65-1.01,1.01Z"/>
      <path class="cls-25" d="m919.44,53.5q-.65-.65,1.01-.5c-.36.14-.72.29-1.01.5Z"/>
      <path class="cls-25" d="m561.46,49.97v2.02c-.43.22-.86.43-1.3.72l-.22-1.73c.5-.36,1.01-.72,1.51-1.01Z"/>
      <path class="cls-15" d="m561.46,51.98q2.02,0,2.02,1.01-2.02,0-2.02-1.01Z"/>
      <path class="cls-25" d="m682.49,51.98v1.01h-2.02v-1.01h2.02Z"/>
      <path class="cls-20" d="m815.47,52.99v-1.01h2.02v.5c-.72.14-1.37.29-2.02.5Z"/>
      <path class="cls-25" d="m297.5,51.98v-1.01h1.94v1.01h-1.94Z"/>
      <path class="cls-13" d="m309.46,51.98c-.22-.72-.36-1.37-.5-2.02h1.51q0,2.02-1.01,2.02Z"/>
      <path class="cls-14" d="m321.48,50.47v-3.46h1.01v4.97q-1.01,0-1.01-1.51Z"/>
      <path class="cls-21" d="m556.49,51.98c.65-.86,1.3-1.73,2.02-2.52-.36.79-.72,1.66-1.01,2.52h-1.01Z"/>
      <path class="cls-14" d="m575.5,51.98q-2.02,0-2.02-1.01,2.02,0,2.02,1.01Z"/>
      <path class="cls-13" d="m669.46,50.98h4.03v1.01h-4.03v-1.01Z"/>
      <path class="cls-17" d="m682.49,51.98v-2.02h1.01v2.02h-1.01Z"/>
      <path class="cls-13" d="m815.47,51.98v-1.01q2.02,0,2.02,1.01h-2.02Z"/>
      <path class="cls-13" d="m907.49,50.47c1.15-.5,2.3-1.01,3.46-1.44.14.29.29.58.5.94l-3.24,1.73c-.29-.43-.5-.86-.72-1.22Z"/>
      <path class="cls-13" d="m924.48,51.98v-2.02q1.01,0,1.01,1.51c-.36.14-.72.29-1.01.5Z"/>
      <path class="cls-25" d="m926.5,51.48c.29-.72.58-1.37.94-2.02.29.5.65,1.01,1.01,1.51-.65.14-1.3.29-1.94.5Z"/>
      <path class="cls-11" d="m204.48,50.98v-4.97h1.01v4.97h-1.01Z"/>
      <path class="cls-10" d="m664.49,50.47q1.51-.14,2.02.5c-.72-.22-1.37-.36-2.02-.5Z"/>
      <path class="cls-25" d="m936.5,50.98v-1.01h1.94v1.01h-1.94Z"/>
      <path class="cls-21" d="m70.49,50.47v-1.44h2.02c-.72.43-1.37.94-2.02,1.44Z"/>
      <path class="cls-16" d="m322.49,112.97v-3.96c-.36-.86-.72-1.73-1.01-2.52v-2.52h1.01v-2.95h-1.01c-.07-5.04,1.15-12.02-2.02-15.98-.36-.72-.72-1.37-1.01-2.02v2.02c-4.61,0-10.66,2.59-14.98,4.46h-2.02c-2.09,0-4.1,0-6.12.07-2.16-4.61-1.51-8.28-1.44-13.46.86-.72,1.73-1.44,2.59-2.09q0,2.02,1.01,2.02v-2.52c4.1-3.6,6.19-7.78,9-12.53q1.44-.79.94-1.01c.65-2.66,1.3-5.33,2.02-7.99q1.01,0,1.01-2.02h-1.51l-.65-1.08c-5.33,2.45-7.49,6.84-9.86,12.1q-1.58.86-.94,1.51c-.86,1.66-1.73,3.31-2.52,4.97l-1.51-.43q-1.01,0-1.01,1.94h1.01v.5l-3.02,3.02c-6.77,11.09-6.12,16.34-2.74,28.73q-.36,3.82-1.22,4.25c-.72-.22-1.37-.36-2.02-.5-.36-.65-.72-1.3-1.01-1.94-.36-.5-.72-1.01-1.01-1.51-.36-.5-.72-1.01-1.01-1.51.29-.72.65-1.37,1.01-2.02q-1.01,0-1.01,1.51c-.36-.5-.72-1.01-1.01-1.51v-2.02h-1.44c-.22-1.87-.36-3.67-.5-5.47v-3.53q-1.01,0-1.01,2.02c-.43-.14-.79-.29-1.15-.43-7.13,8.06-12.38,9.5-23.04,10.01-.29-.86-.58-1.73-.79-2.59.36.22.72.43,1.15.72.22-.58.5-1.15.79-1.73h-1.94v-9.94q1.44-.79.94-1.01c5.69-6.84,11.38-13.68,17.06-20.52.29-1.01.58-2.02.94-3.02-4.03,1.01-7.99,2.02-11.95,3.02-.72.14-1.37.29-2.02.5h-1.01c-.72-1.87-1.37-3.74-2.02-5.54,1.3-2.02,2.66-4.03,4.03-5.98q0,1.51,1.01,1.51v-2.02c6.62-6.34,13.32-12.67,20.02-19.01.36.22.72.43,1.15.72.22-.94.5-1.8.79-2.66,1.51-1.87,3.02-3.74,4.54-5.54q2.02-9,3.31-10.15,5.76.72,8.64,2.16c-1.44,6.48-5.83,10.87-10.44,15.48-.79.22-1.58.43-2.3.72-.29.58-.5,1.15-.72,1.8-3.02,2.66-6.05,5.33-9,7.99-.72-.22-1.37-.36-2.02-.5v2.02c-.36.29-.72.65-1.01,1.01h-1.94v1.51q-8.35,6.7-9.5,9l.5.5c.65.14,1.3.29,1.94.5q5.04-1.01,7.99-2.52,0,1.01,2.02,1.01v-1.01c1.01-.22,2.02-.36,3.02-.5.65-.22,1.3-.36,2.02-.5,4.75-.65,5.9-1.94,7.99-5.98.29-.86.65-1.73,1.01-2.52q3.46-5.98,6.98-9.5l1.01,1.01c.29-.36.65-.72,1.01-1.01.94-.22,1.94-.36,2.95-.5q2.23,1.73,3.02,3.53,0,1.44,1.51,1.94c.14.5.29,1.01.5,1.51q-2.02.5-2.02,1.51h3.02c.79.29,1.58.65,2.45,1.01,1.15-1.37,2.3-2.74,3.53-4.03.14-.86.29-1.66.5-2.45-2.16-9-3.02-8.14,5.47-11.52.65,1.66,1.3,3.31,2.02,4.97v2.02c.65-.22,1.3-.36,2.02-.5,1.08-.36,2.16-.65,3.24-.94.58-5.9,1.15-11.74,1.73-17.57.29-.86.65-1.66,1.01-2.45v-1.51q2.23-.79,3.02-2.52c5.18,3.17,7.27,6.41,10.01,11.52q-.5.22,1.01,2.02c2.02,5.98,2.59,8.42,1.66,14.69,2.09,2.88,4.18,5.83,6.34,8.78v2.52h1.51c2.59,5.83,6.7,8.64,11.45,12.96-.36.65-.72,1.3-1.01,2.02q-3.24,1.73-11.95,3.53c-.29-.43-.58-.86-.79-1.3-.79.22-1.51.5-2.23.79v1.44c-5.98,3.38-6.48,5.11-7.49,11.52h-1.51v3.02h1.01c-1.01,5.62-2.02,11.3-3.02,16.99-.43-.29-.86-.58-1.3-.79.07,1.08.14,2.16.29,3.31-.5,6.34-3.38,11.66-5.98,17.5-.86.29-1.73.65-2.52,1.01h-1.44c-.72-2.38-1.37-4.75-2.02-7.06h0Zm-36-45.94h2.02c4.32-4.32,7.27-6.7,9-12.53-5.9-1.37-7.06-.14-10.01,4.46-.22.79-.36,1.66-.5,2.52-.22,1.15-.36,2.3-.5,3.53v2.02h0Zm-18,13.97c-.07,1.08-.14,2.23-.14,3.38.72-.14,1.44-.29,2.16-.36h.94c1.01-4.25,4.75-6.12,8.06-9v-2.02c-.36-.72-.72-1.37-1.01-2.02h-2.02c-2.02,2.66-4.03,5.33-5.98,7.99-.72.65-1.37,1.3-2.02,2.02h0Zm41.98-7.99h4.03c2.02-1.22,4.1-2.38,6.19-3.53q0-2.23-1.73-4.46c-4.39,2.74-6.34,3.38-8.5,7.99h0Zm-19.01-23.04c2.88.58,3.89-1.15,6.05-2.95v-3.02c-.36-.22-.72-.36-1.01-.5q-3.53,2.02-5.04,4.54v1.94h0Zm-12.46,10.01c.79-.14,1.66-.29,2.52-.43q.43-2.02-.58-3.02c-1.01.29-2.02.65-2.95,1.01.29.79.65,1.58,1.01,2.45h0Zm42.48-12.96c-.79.22-1.58.43-2.3.72.07.94.22,1.87.36,2.81.65-.07,1.3-.07,1.94-.07v-3.46h0Zm18,12.96c.72-.29,1.44-.58,2.23-.79.22-.72.5-1.44.79-2.16-.72.07-1.44.22-2.16.36l-.86,2.59Z"/>
      <path class="cls-21" d="m579.46,50.47q.72-1.73,3.02-2.45v1.44c-1.01.29-2.02.65-3.02,1.01Z"/>
      <path class="cls-13" d="m696.46,50.47c-1.01-.65-2.02-1.3-2.95-1.94,2.3-1.22,2.52-.65,4.97,0-.72.65-1.37,1.3-2.02,1.94Z"/>
      <path class="cls-13" d="m822.46,50.47v-1.44c.65.14,1.3.29,2.02.43-.72.29-1.37.65-2.02,1.01Z"/>
      <path class="cls-13" d="m291.46,48.02v1.94c-.72-.22-1.37-.36-2.02-.5.65-.5,1.3-1.01,2.02-1.44Z"/>
      <path class="cls-20" d="m911.45,49.97c-.22-.36-.36-.65-.5-.94l1.51-1.51c-.36.79-.72,1.58-1.01,2.45Z"/>
      <path class="cls-13" d="m920.45,49.97v-.94h2.02v.94h-2.02Z"/>
      <path class="cls-14" d="m940.46,48.02c.29.14.65.29,1.01.5v1.44q-1.01,0-1.01-1.94Z"/>
      <path class="cls-11" d="m126.94,49.46c-.14-.86-.29-1.66-.43-2.45h.94c-.22.79-.36,1.58-.5,2.45Z"/>
      <path class="cls-25" d="m21.46,49.03v-1.01h2.02v1.01h-2.02Z"/>
      <path class="cls-13" d="m51.48,47.02v2.02q-1.01,0-1.01-2.02h1.01Z"/>
      <path class="cls-19" d="m681.48,49.03c.29-.36.65-.72,1.01-1.01q.5.22-1.01,1.01Z"/>
      <path class="cls-25" d="m819.5,49.03v-1.01h1.94v1.01h-1.94Z"/>
      <path class="cls-13" d="m73.44,48.53v-1.51c.65.14,1.3.29,2.02.5-.72.29-1.37.65-2.02,1.01Z"/>
      <path class="cls-13" d="m161.5,48.02v-2.02h1.01v2.02h-1.01Z"/>
      <path class="cls-21" d="m297.5,47.02v-1.51h.94c-.36.5-.65,1.01-.94,1.51Z"/>
      <path class="cls-17" d="m309.46,47.02h2.02q0,1.01-2.02,1.01v-1.01Z"/>
      <path class="cls-14" d="m349.49,45.5q1.08.43,1.51,2.52h-1.51v-2.52Z"/>
      <path class="cls-10" d="m806.47,47.02h3.02v1.01h-3.02v-1.01Z"/>
      <path class="cls-15" d="m812.45,46.51c.29-.22.65-.36,1.01-.5.29.5.65,1.01,1.01,1.51-.72.14-1.37.29-2.02.5v-1.51Z"/>
      <path class="cls-13" d="m270.5,47.52v-1.51h1.94l-1.94,1.51Z"/>
      <path class="cls-27" d="m126.5,47.02l.43-4.54c.14,1.51.29,3.02.5,4.54h-.94Z"/>
      <path class="cls-13" d="m311.47,47.02v-3.02h1.01v3.02h-1.01Z"/>
      <path class="cls-11" d="m806.47,41.98v5.04h-1.01v-5.04h1.01Z"/>
      <path class="cls-25" d="m928.44,43.99c1.66.29,3.31.65,5.04,1.01-.29.58-.58,1.15-.79,1.73q-3.53-1.51-4.25-2.74Z"/>
      <path class="cls-21" d="m1.44,46.01v-2.02h1.01q0,2.02-1.01,2.02Z"/>
      <path class="cls-13" d="m21.46,46.01v-1.01h2.02v1.01h-2.02Z"/>
      <path class="cls-15" d="m143.5,44.5c.65-.22,1.3-.36,1.94-.5v2.02h-1.94v-1.51Z"/>
      <path class="cls-27" d="m150.48,46.01c.5-.72,1.01-1.37,1.51-2.02.14.65.29,1.3.5,2.02h-2.02Z"/>
      <path class="cls-15" d="m166.46,46.01q-1.01,0-1.01-2.02,1.01,0,1.01,2.02Z"/>
      <path class="cls-6" d="m204.48,46.01v-2.02h1.01v2.02h-1.01Z"/>
      <path class="cls-27" d="m302.47,46.01v-1.01h2.02v1.01h-2.02Z"/>
      <path class="cls-25" d="m568.94,46.01c.14-.72.29-1.37.5-2.02q1.01,0,1.01,2.02h-1.51Z"/>
      <path class="cls-13" d="m696.46,44.5c.65-.22,1.3-.36,2.02-.5-.5.65-1.01,1.3-1.51,2.02-.22-.5-.36-1.01-.5-1.51Z"/>
      <path class="cls-25" d="m916.49,43.99c.29-.5.65-1.01,1.01-1.51v3.53q-1.01,0-1.01-2.02Z"/>
      <path class="cls-20" d="m586.44,45.5q-.94-2.52-2.74-3.31c.22-.58.5-1.15.79-1.73q4.97-2.95,5.98-4.46c-.36-.72-.72-1.37-1.01-2.02q-1.94-3.46-4.46-5.98v-.5c5.47,2.3,10.01,3.31,15.91,4.32,0,.86,0,1.73.07,2.66-4.9,3.67-9.72,7.34-14.54,11.02Z"/>
      <path class="cls-21" d="m273.46,45v-2.02c.65.14,1.3.29,2.02.5-.72.5-1.37,1.01-2.02,1.51Z"/>
      <path class="cls-13" d="m577.94,40.46c.14.5.29,1.01.5,1.51v3.02h-1.01c.14-1.51.29-3.02.5-4.54Z"/>
      <path class="cls-8" d="m837.5,45v-4.03h.94v4.03h-.94Z"/>
      <path class="cls-13" d="m155.45,43.99v-1.01h2.02v1.01h-2.02Z"/>
      <path class="cls-3" d="m204.48,43.99v-3.96c.29,1.3.65,2.59,1.01,3.96h-1.01Z"/>
      <path class="cls-10" d="m296.5,43.49v-.5h1.94c-.36.29-.65.65-.94,1.01-.36-.22-.72-.36-1.01-.5Z"/>
      <path class="cls-25" d="m304.49,42.48c.29.5.65,1.01,1.01,1.51h-3.02q0-1.01,2.02-1.51Z"/>
      <path class="cls-27" d="m574.49,43.99v-2.02h1.01v2.02h-1.01Z"/>
      <path class="cls-21" d="m698.47,43.99c.65-.5,1.3-1.01,2.02-1.51v1.51h-2.02Z"/>
      <path class="cls-11" d="m819.5,43.49v-2.52h.94q0,2.52-.94,2.52Z"/>
      <path class="cls-10" d="m1.44,42.98q0-1.01,2.02-1.01v1.01H1.44Z"/>
      <path class="cls-13" d="m19.44,41.47c.29-.22.65-.36,1.01-.5v2.02q-1.01,0-1.01-1.51Z"/>
      <path class="cls-15" d="m296.5,42.98q0-1.01,1.94-1.01v1.01h-1.94Z"/>
      <path class="cls-21" d="m533.45,42.48c.36-.36.72-.72,1.08-1.01.29.29.58.65.94,1.01h-2.02Z"/>
      <path class="cls-21" d="m798.48,42.98v-2.02h1.01q0,2.02-1.01,2.02Z"/>
      <path class="cls-25" d="m141.48,40.03v1.94q-1.01,0-1.01-1.94h1.01Z"/>
      <path class="cls-13" d="m160.49,41.98v-1.01h2.02v1.01h-2.02Z"/>
      <path class="cls-15" d="m165.46,41.98v-1.94h1.01v1.94h-1.01Z"/>
      <path class="cls-16" d="m546.48,112.97c-.72-.36-1.37-.65-2.02-.94l-3.02-4.54c-.36-.86-.65-1.73-.94-2.52-.36-.65-.72-1.3-1.01-1.94v-.5c.14-.36.36-.72.58-1.01q-4.61-4.32-5.11-4.03h-1.51v-2.02c-.36-.86-.72-1.66-1.01-2.45-.86-.86-1.66-1.73-2.45-2.52-2.74,1.8-7.34,2.74-10.51,3.53-1.01-.22-2.02-.36-3.02-.5-.36.43-.72.94-1.01,1.44-1.01-.5-2.02-1.01-2.95-1.44q-1.58-.43-2.52-2.52c-.5-1.87-1.01-3.74-1.51-5.54,1.3-1.37,2.66-2.66,4.03-3.96q0,1.51,1.01,1.51c-.22-.86-.36-1.73-.5-2.52-.22-1.87-.36-3.67-.5-5.47.94.29,1.94.65,2.95,1.01v-1.51q4.75.22,7.99-.5,0,1.01,2.02,1.01v-1.51c2.02-2.02,9.5-3.74,12.02-5.04q0,1.51,1.01,1.51v-2.02c.65-.22,1.3-.36,2.02-.5.79-9,3.38-15.91,4.97-24.48-.36-.22-.72-.36-1.01-.5-1.66-.22-3.31-.36-4.97-.5-.72.14-1.37.29-2.02.5h-2.02c-.36-.36-.65-.72-.94-1.01-.36.29-.72.65-1.08,1.01l-3.24-1.3c.07-1.3.22-2.59.36-3.82,5.4.14,7.85-1.58,12.89-2.38.65-.36,1.3-.72,2.02-1.01.29-.36.65-.72,1.01-1.01q0,1.01,2.02,1.01v-2.02c1.3-2.16,2.59-4.32,3.96-6.48.14-1.01.29-2.02.5-3.02l1.51,1.51c.22.72.43,1.44.72,2.23.72.22,1.51.5,2.3.79v.5c-.86,2.16-1.73,4.32-2.52,6.48h-3.53v1.01h3.02c-.36,3.46-.72,6.98-1.01,10.51-.36,1.8-.72,3.6-1.01,5.47-.36,1.01-.72,2.02-1.01,3.02-.36.65-.72,1.3-1.01,2.02h1.01v1.01q0,1.01,2.02,1.01v-1.01q1.08-.43,2.02-2.52c.29-.22.65-.36,1.01-.5.29-.72.65-1.37,1.01-2.02.29-.86.65-1.73,1.01-2.52h2.95q4.03-.94,7.49-3.46h1.51q0-2.02-1.01-2.02v-5.47c.29-.22.65-.36,1.01-.5q1.01,0,1.01-2.02h-1.01v-.5c.86-3.1,1.8-6.19,2.74-9.29-.29-8.5-1.51-12.02-.72-14.18.65-.36,1.3-.72,2.02-1.01.65.14,1.3.29,2.02.5-.22.29-.43.65-.65,1.01.5.43,1.01.94,1.58,1.44q0,2.02,1.01,2.02v-2.02c.14-.22.29-.36.5-.5l1.51.22c.29.72.65,1.51,1.01,2.3v2.02q.36,5.54,1.51,7.99v.5c-.36.14-.72.29-1.01.5q-1.51.5-2.16,1.87l.65.65c-.86,3.6-1.73,7.27-2.52,10.94-.22,1.51-.36,3.02-.5,4.54h1.01v-3.02l6.05-1.51c-.29.58-.58,1.15-.79,1.73q1.8.79,2.74,3.31-1.87,3.02-3.96,3.96v-1.44q-2.3.72-3.02,2.45c-1.37.65-2.66,1.3-3.96,2.02-.36.79-.72,1.66-1.01,2.52v3.46h1.01c-.29.58-.58,1.15-.79,1.73.65.5,1.3,1.01,2.02,1.51.22-.79.43-1.51.72-2.23,2.3.65,4.68,1.3,7.06,2.02.94.29,1.94.65,2.95,1.01.29,1.51.65,3.02,1.01,4.54.14.79.29,1.58.5,2.45.14,1.15.29,2.3.5,3.53-.22,1.15-.36,2.3-.5,3.46-.43,3.96-.79,7.92-1.15,11.95.86.36,1.73.72,2.66,1.08v1.51h4.03q.65,1.51.94,1.01h1.01q1.01,1.73,1.51,1.51c.5.29,1.01.58,1.51.94.94,1.66,1.87,3.31,2.88,5.04.36-.36.72-.72,1.15-1.01,1.58,2.45,1.37,3.46.94,6.48-.36.65-.65,1.3-.94,2.02,0,2.59-3.17,3.53-5.04,4.03-.72-.22-1.37-.36-2.02-.5-.65-.22-1.3-.36-1.94-.5-.22-.72-.36-1.37-.5-2.02-.5.29-1.01.65-1.51,1.01-.36-.22-.72-.36-1.01-.5v-2.52q-1.01,0-1.01,1.51c-1.58-.43-2.52-2.02-5.47-4.03-8.93-2.3-20.45,2.74-30.53,2.74-1.37-2.09-2.74-4.18-4.03-6.19,1.01,0,1.01-2.02,2.02-2.02q8.21,1.73,11.02,1.51v.5q0,2.02,1.01,2.02v-2.02c.29-.22.65-.36,1.01-.5.94-.36,1.94-.72,2.95-1.01.29-.22.65-.36,1.01-.5-1.01-3.02-2.02-6.05-2.95-9q.5-.29-1.01-1.01c-1.01-1.51-2.02-3.02-3.02-4.46.29-.29.58-.58.86-.79-.65-.29-1.3-.5-1.87-.72q-.29-.5,1.22-1.8c2.81.36,9.65,1.15,11.81,3.31q3.67.72,5.18.22l1.3-3.24c.29.07.58.22.94.36-.14-.65-.29-1.3-.43-1.87v-4.97h1.01v-4.03h-1.01c-.72-1.37-1.37-2.66-2.02-3.96q0-1.01-2.02-1.01v1.01c-1.87,2.52-3.24,5.4-6.12,6.48-.65-1.37-1.3-2.74-1.87-4.03v-2.45h-1.94c-.36-1.37-.72-2.74-1.01-4.03.29-.72.65-1.37,1.01-2.02v-1.94c-.36-1.01-.72-2.02-1.01-3.02v-1.01h-3.02v1.01c-3.02.43-3.24.72-4.97,3.02q-1.51.65-1.01.94c-.72,1.3-1.37,2.66-2.02,4.03-.43-.29-.86-.58-1.3-.79.07.58.14,1.15.29,1.8q-3.53,5.47-4.97,6.48c-2.45,6.48-5.04,12.31-3.02,19.51-.5.65-1.01,1.3-1.51,2.02.14.65.29,1.3.5,2.02,0,.94-2.02.94-2.02,1.94h2.02v2.52c-.36.22-.65.43-.94.72.65.22,1.3.5,1.94.79.65,2.45,1.3,4.97,2.02,7.49v5.98c-.72-.22-1.37-.36-2.02-.5Z"/>
      <path class="cls-13" d="m835.49,40.03c.65.29,1.3.58,2.02.94v1.01c-.72-.65-1.37-1.3-2.02-1.94Z"/>
      <path class="cls-25" d="m302.47,39.02l1.51,1.94q-1.51-.5-1.51-1.94Z"/>
      <path class="cls-14" d="m453.46,39.02l1.01,1.01q-.29.43-1.01-1.01Z"/>
      <path class="cls-27" d="m683.5,40.03v-3.02h1.01v3.02h-1.01Z"/>
      <path class="cls-21" d="m827.5,39.02h2.95v1.01c-1.01-.36-2.02-.72-2.95-1.01Z"/>
      <path class="cls-10" d="m830.45,40.03v-1.01c.65.14,1.3.29,2.02.5-.72.14-1.37.29-2.02.5Z"/>
      <path class="cls-13" d="m64.44,39.53v-1.51q2.02,0,2.02,1.01c-.72.14-1.37.29-2.02.5Z"/>
      <path class="cls-10" d="m702.5,39.53v-2.52h.94q0,2.52-.94,2.52Z"/>
      <path class="cls-10" d="m68.47,39.02v-1.01h3.02v1.01h-3.02Z"/>
      <path class="cls-20" d="m569.45,38.52c.29-1.01.65-2.02,1.01-3.02v2.52c-.36.14-.72.29-1.01.5Z"/>
      <path class="cls-13" d="m55.44,37.01v1.01h-1.94v-1.01h1.94Z"/>
      <path class="cls-25" d="m157.46,38.02v-1.01h2.02v1.01h-2.02Z"/>
      <path class="cls-13" d="m295.49,37.01q2.02,0,2.02,1.01-2.02,0-2.02-1.01Z"/>
      <path class="cls-13" d="m570.46,38.02v-2.02h1.01q0,2.02-1.01,2.02Z"/>
      <path class="cls-14" d="m55.44,37.01v-2.02q1.01,0,1.01,2.02h-1.01Z"/>
      <path class="cls-25" d="m88.49,36c-.36.29-.72.65-1.01,1.01q-.5-.29,1.01-1.01Z"/>
      <path class="cls-25" d="m141.48,36h2.02c-.36.29-.72.65-1.01,1.01l-1.01-1.01Z"/>
      <path class="cls-13" d="m161.5,37.01v-1.01h1.94v1.01h-1.94Z"/>
      <path class="cls-10" d="m294.48,36c.65-.36,1.3-.72,2.02-1.01v1.01c-.36.29-.72.65-1.01,1.01l-1.01-1.01Z"/>
      <path class="cls-14" d="m409.97,36c.14-.36.29-.72.5-1.01q2.23-.29,4.03-2.02v2.52q-.94,1.08-3.53,1.51l-1.01-1.01Z"/>
      <path class="cls-21" d="m923.47,36.5v-1.51h2.02c-.72.5-1.37,1.01-2.02,1.51Z"/>
      <path class="cls-13" d="m141.48,36q-1.01,0-1.01-2.02,1.01,0,1.01,2.02Z"/>
      <path class="cls-13" d="m158.47,34.49c.65-.22,1.3-.36,2.02-.5h2.02c.65-.22,1.3-.36,1.94-.5.65.14,1.3.29,2.02.5-2.66.65-5.33,1.3-7.99,2.02v-1.51Z"/>
      <path class="cls-11" d="m296.5,36v-1.01c.94.14,1.94.29,2.95.5-1.01.14-2.02.29-2.95.5Z"/>
      <path class="cls-21" d="m407.95,34.49c.14-.22.29-.36.5-.5q1.01-2.02,2.02-2.02v3.02c-.22.29-.36.65-.5,1.01-.72-.5-1.37-1.01-2.02-1.51Z"/>
      <path class="cls-10" d="m284.47,35.5c.22-.65.43-1.22.72-1.8.72-.29,1.51-.5,2.3-.72-1.01.79-2.02,1.66-3.02,2.52Z"/>
      <path class="cls-14" d="m414.5,35.5v-2.52c.43.14.94.29,1.44.5-.5.65-1.01,1.3-1.44,2.02Z"/>
      <path class="cls-25" d="m57.46,33.98q2.02,0,2.02,1.01-2.02,0-2.02-1.01Z"/>
      <path class="cls-21" d="m63.5,33.98v-1.01h2.95c.29.5.65,1.01,1.01,1.51-1.37-.22-2.66-.36-3.96-.5Z"/>
      <path class="cls-21" d="m88.99,32.98h1.51q0,2.02-1.01,2.02c-.22-.72-.36-1.37-.5-2.02Z"/>
      <path class="cls-25" d="m315.5,34.99v-1.01h1.94v1.01h-1.94Z"/>
      <path class="cls-12" d="m410.47,34.99v-3.02q-1.01,0-2.02,2.02c-.72-.22-1.37-.36-2.02-.5-2.38-2.88-2.38-4.25-2.95-7.99.29-1.01.65-2.02,1.01-3.02.29-1.66.65-3.31,1.01-4.97v-2.52c.65-.36,1.3-.72,1.94-1.01h1.01c.65.29,1.3.65,2.02,1.01,1.15,3.46,2.3,6.98,3.53,10.51,1.94,3.1,1.94,4.25,1.94,7.99-.5-.22-1.01-.36-1.44-.5q-1.8,1.73-4.03,2.02Z"/>
      <path class="cls-13" d="m554.98,33.98c-.22.29-.36.65-.5,1.01h-3.02v-1.01h3.53Z"/>
      <path class="cls-10" d="m406.44,33.48c.65.14,1.3.29,2.02.5-.22.14-.36.29-.5.5-.5-.36-1.01-.72-1.51-1.01Z"/>
      <path class="cls-13" d="m52.49,33.98v-2.02h1.01v2.02h-1.01Z"/>
      <path class="cls-21" d="m55.44,33.98c.29-.5.65-1.01,1.01-1.51h1.01v1.51h-2.02Z"/>
      <path class="cls-10" d="m61.49,33.48c.65-.22,1.3-.36,2.02-.5v1.01c-.72-.22-1.37-.36-2.02-.5Z"/>
      <path class="cls-5" d="m160.49,33.98c.65-.36,1.3-.72,2.02-1.01v1.01h-2.02Z"/>
      <path class="cls-1" d="m162.5,33.98v-1.01c.65.14,1.3.29,1.94.5-.65.14-1.3.29-1.94.5Z"/>
      <path class="cls-13" d="m279.5,32.98l1.94-1.94c-.29.86-.58,1.73-.79,2.66-.43-.29-.79-.5-1.15-.72Z"/>
      <path class="cls-14" d="m319.46,31.97c.65.5,1.3,1.01,2.02,1.51-.72.14-1.37.29-2.02.5v-2.02Z"/>
      <path class="cls-13" d="m546.48,32.98c.65-.36,1.3-.72,2.02-1.01v2.02q-2.02,0-2.02-1.01Z"/>
      <path class="cls-25" d="m937.44,33.98h-2.95v-1.01h2.95v1.01Z"/>
      <path class="cls-19" d="m940.46,33.98v-2.02q2.02,0,2.02,1.01c-.72.29-1.37.65-2.02,1.01Z"/>
      <path class="cls-13" d="m949.46,32.47v-2.45q1.01,0,1.01,1.94c-.36.14-.72.29-1.01.5Z"/>
      <path class="cls-26" d="m932.47,31.03c1.01-.86,2.02-1.73,3.02-2.52v3.46c-1.01-.36-2.02-.65-3.02-.94Z"/>
      <path class="cls-3" d="m82.44,31.03v-1.01c.65.29,1.3.65,2.02,1.01h-2.02Z"/>
      <path class="cls-15" d="m145.44,31.46c-.22-.86-.36-1.66-.5-2.45.5.29,1.01.65,1.51,1.01v.5c-.36.29-.72.58-1.01.94Z"/>
      <path class="cls-8" d="m78.48,30.53c1.3-.22,2.59-.36,3.96-.5v1.01c-1.37-.22-2.66-.36-3.96-.5Z"/>
      <path class="cls-25" d="m201.46,31.03v-2.02h1.01v2.02h-1.01Z"/>
      <path class="cls-21" d="m146.45,30.53v-.5c.14-1.01.29-2.02.5-3.02.5.29,1.01.65,1.51,1.01-.72.79-1.37,1.66-2.02,2.52Z"/>
      <path class="cls-21" d="m56.45,28.01v2.02h-1.01q0-2.02,1.01-2.02Z"/>
      <path class="cls-16" d="m417.46,94.03c.65-.22,1.3-.36,2.02-.5,5.18-.5,9.94-.5,14.47-3.02v-2.02c-.65-.36-1.3-.72-1.94-1.01,0-6.41,1.66-9.58,4.46-15.48q1.01,0,1.01-2.02h-1.01c-.22-.43-.43-.79-.58-1.15-4.82,0-6.34,1.58-10.44,4.18h-1.94v1.51c-.72.14-1.37.29-2.02.5.72-3.38,1.44-6.7,2.23-10.01,1.87-.86,3.82-1.73,5.76-2.52.65-.22,1.3-.36,2.02-.5,3.96.5,8.21,2.74,11.02,2.59,5.33-2.81,11.52-4.46,13.97-10.08h1.01v-3.02h-1.01c-3.89-6.62-6.91-10.01-14.98-10.01-.72.14-1.37.29-2.02.5-10.66,6.48-19.44,16.56-28.51,25.06-2.02,3.46-4.03,11.45-6.41,16.06-5.26.5-7.99,0-10.08-5.11-.36-.86-.72-1.66-1.01-2.45.07-2.74.22-5.47.36-8.21,5.76-4.25,9.79-9.43,14.47-14.83,10.22-6.34,20.45-12.67,30.67-19.01.14-.86.29-1.66.5-2.45-3.02-1.37-6.05-2.74-9-4.03q.5-.29-1.01-1.01v-1.01c1.01-.22,2.02-.36,3.02-.5,8.28-1.3,13.46-2.74,20.95-6.48h2.02q1.51,0,11.09,4.46c.14,1.3.29,2.66.43,4.03-6.7,2.66-13.39,5.33-20.02,7.99-.14.79-.22,1.66-.29,2.52,2.09.94,4.46,2.95,6.77,2.02q.72,1.44,1.01,1.01c5.54,5.47,7.99,9.65,10.01,16.99v2.95c-.58,3.02-1.44,4.25-4.03,5.54-.65.14-1.3.29-1.94.5-4.54,2.23-10.3,1.3-13.54,3.46-.36,2.3-.72,4.61-1.01,6.98-3.1,3.67-6.41,5.62-6.41,10.58.65.43,1.3.94,1.94,1.44,2.66-.5,3.24-.94,4.82-2.95,7.13.94,8.14,1.94,15.19,3.46q1.15,3.24,1.15,7.7c-5.69,3.38-9.94-1.51-16.49-1.01-5.33,8.5,3.74,15.12-7.7,20.3h-4.97c-7.13-1.3-11.66-3.1-18-6.48,7.85-1.73,21.38-2.3,22.97-11.52-9,.65-16.2,2.3-24.55-1.94-.07-.65-.14-1.22-.22-1.8,1.87-.07,3.82-.14,5.76-.22h0Zm27-64.01h2.02c.5-1.37,1.01-2.66,1.58-3.96-.5-.36-.94-.72-1.37-1.08-.79,1.66-1.51,3.31-2.23,5.04Z"/>
      <path class="cls-10" d="m901.44,29.52c.65-.22,1.3-.36,2.02-.5v.5h-2.02Z"/>
      <path class="cls-13" d="m580.46,29.52l-.65-.65q.65-1.37,2.16-1.87c-.5.79-1.01,1.66-1.51,2.52Z"/>
      <path class="cls-21" d="m898.49,27c.14-.72.29-1.37.5-2.02l1.51,3.02h2.95v1.01c-.72.14-1.37.29-2.02.5q-2.23-1.01-2.95-2.52Z"/>
      <path class="cls-16" d="m903.46,29.52v-1.51h-2.95l-1.51-3.02c-.22.65-.36,1.3-.5,2.02-1.37-2.38-2.74-4.68-4.03-6.98v-2.02c.29-1.22.65-2.38,1.01-3.53q2.74-9.29,5.04-13.46h1.94c.29,1.01.65,2.02,1.01,3.02h-2.02c.29.43.58.94.86,1.44.36-.36.72-.72,1.15-1.01.29.65.65,1.3,1.01,2.02.14,1.66.29,3.31.5,5.04.07,6.55.43,11.74-1.51,18Z"/>
      <path class="cls-25" d="m715.46,28.51c.36-.36.72-.72,1.08-1.01.29.5.58,1.01.94,1.51-.72-.22-1.37-.36-2.02-.5Z"/>
      <path class="cls-16" d="m717.48,29.02c-.36-.5-.65-1.01-.94-1.51-.36.29-.72.65-1.08,1.01q-1.51-1.51-2.02-3.53.5-.29-1.01-1.01-1.94-3.96-2.95-3.96v1.51c-3.46-6.19-5.33-7.85-5.69-10.15,4.82-.79,8.86.22,13.68,1.15v1.44c.65-.22,1.3-.36,2.02-.5,3.74,2.3,8.57,5.26,5.98,10.51q-1.51.72-1.01,1.01c-1.01,1.15-2.02,2.3-3.02,3.53-1.37.14-2.66.29-3.96.5Z"/>
      <path class="cls-15" d="m935.5,29.02v-.5c.79-.5,1.58-1.01,2.45-1.51.14.65.29,1.3.5,2.02h-2.95Z"/>
      <path class="cls-25" d="m413.5,25.99v2.02h-1.01v-2.02h1.01Z"/>
      <path class="cls-13" d="m552.46,25.99q1.01,0,1.01,2.02-1.01,0-1.01-2.02Z"/>
      <path class="cls-10" d="m582.98,26.5v-.5c.65.5,1.3,1.01,2.02,1.51v.5c-.72-.5-1.37-1.01-2.02-1.51Z"/>
      <path class="cls-14" d="m721.44,28.01q-1.94,0-1.94-1.01,1.94,0,1.94,1.01Z"/>
      <path class="cls-13" d="m798.48,28.01c-.22-1.01-.36-2.02-.5-3.02h1.51v3.02h-1.01Z"/>
      <path class="cls-23" d="m557.5,27.5v-.5q0-2.02,1.01-2.02v1.51c-.36.29-.72.65-1.01,1.01Z"/>
      <path class="cls-10" d="m932.47,27.5v-1.51h2.02c-.72.5-1.37,1.01-2.02,1.51Z"/>
      <path class="cls-10" d="m429.48,25.99q1.51.72,1.01,1.01l-1.01-1.01Z"/>
      <path class="cls-12" d="m554.47,23.98l4.97-1.94c.65.14,1.3.29,2.02.43q-1.51,3.02-2.95,4.03v-1.51q-1.01,0-1.01,2.02c-.79-.29-1.58-.58-2.3-.79-.29-.79-.5-1.51-.72-2.23Z"/>
      <path class="cls-13" d="m901.44,27v-2.02c.65.14,1.3.29,2.02.5-.72.5-1.37,1.01-2.02,1.51Z"/>
      <path class="cls-13" d="m56.45,23.98v2.02h-1.01q0-2.02,1.01-2.02Z"/>
      <path class="cls-15" d="m719.5,25.99v-1.01h1.94v1.01h-1.94Z"/>
      <path class="cls-13" d="m805.46,24.48h1.01v1.51c-.65-.29-1.3-.58-1.94-.79.29-.29.58-.5.94-.72Z"/>
      <path class="cls-20" d="m136.44,24.48c.65-.72,1.3-1.37,2.02-2.02q.58.58,0,2.02h-2.02Z"/>
      <path class="cls-13" d="m150.48,24.98q.72-1.51,1.01-1.01c-.36.29-.72.65-1.01,1.01Z"/>
      <path class="cls-27" d="m712.44,23.98q1.51.72,1.01,1.01l-1.01-1.01Z"/>
      <path class="cls-14" d="m725.47,23.98c-.36.29-.72.65-1.01,1.01q-.5-.29,1.01-1.01Z"/>
      <path class="cls-13" d="m800.5,24.98v-2.02h1.01v2.02h-1.01Z"/>
      <path class="cls-6" d="m805.46,24.48v-2.45c.29.79.65,1.58,1.01,2.45h-1.01Z"/>
      <path class="cls-16" d="m554.47,23.98l-1.51-1.51c.5-2.02,1.01-4.03,1.51-5.98l4.97-1.51v1.01c.65-.22,1.3-.36,2.02-.5.65.14,1.3.29,2.02.5.29.65.65,1.3,1.01,2.02q-1.51,3.53-3.02,4.46c-.72-.14-1.37-.29-2.02-.43l-4.97,1.94Z"/>
      <path class="cls-20" d="m709.49,21.53v-1.51q1.01,0,2.95,3.96c-.72-.14-1.44-.29-2.09-.43-.29-.72-.58-1.37-.86-2.02Z"/>
      <path class="cls-27" d="m803.45,23.98v-1.94h1.01v1.94h-1.01Z"/>
      <path class="cls-15" d="m933.48,22.46c.65-.14,1.3-.29,2.02-.43v1.94h-2.02v-1.51Z"/>
      <path class="cls-13" d="m937.44,23.98v-1.94h1.01v1.94h-1.01Z"/>
      <path class="cls-13" d="m56.45,18v4.97h-1.01c-.29-1.44-.5-2.88-.72-4.25.58-.29,1.15-.5,1.73-.72Z"/>
      <path class="cls-13" d="m52.49,22.03v-2.02h1.01v2.02h-1.01Z"/>
      <path class="cls-3" d="m56.45,22.03v-2.02h1.01c-.36.65-.72,1.3-1.01,2.02Z"/>
      <path class="cls-13" d="m143.5,20.02h1.94c-.22.65-.36,1.3-.5,2.02-.5-.72-1.01-1.37-1.44-2.02Z"/>
      <path class="cls-25" d="m340.49,20.02c.29.65.65,1.3,1.01,2.02q-1.51-1.8-1.01-2.02Z"/>
      <path class="cls-13" d="m559.44,22.03q-.94,0-.94-2.02.94,0,.94,2.02Z"/>
      <path class="cls-17" d="m292.46,21.02v-2.02h1.01v2.02h-1.01Z"/>
      <path class="cls-21" d="m804.46,18.5c.29.79.65,1.66,1.01,2.52-.65-.29-1.22-.58-1.8-.79.22-.58.5-1.15.79-1.73Z"/>
      <path class="cls-8" d="m155.45,20.52v-1.51h2.02c-.72.5-1.37,1.01-2.02,1.51Z"/>
      <path class="cls-10" d="m56.45,20.02v-2.02c.14-.22.29-.36.5-.5.14.79.29,1.66.5,2.52h-1.01Z"/>
      <path class="cls-13" d="m407.45,20.02v-2.02h1.01v2.02h-1.01Z"/>
      <path class="cls-13" d="m556.49,20.02v-2.02h1.01v2.02h-1.01Z"/>
      <path class="cls-25" d="m799.49,20.02v-1.01h2.02v1.01h-2.02Z"/>
      <path class="cls-3" d="m894.46,15.98v4.03h-1.01v-4.03h1.01Z"/>
      <path class="cls-14" d="m918.5,18.5c.65.29,1.3.65,1.94,1.01-.65.14-1.3.29-1.94.5v-1.51Z"/>
      <path class="cls-13" d="m945.5,18h.94c.29.5.65,1.01,1.01,1.51-.65.14-1.3.29-1.94.5v-2.02Z"/>
      <path class="cls-21" d="m143.5,19.01c.94-.72,1.94-1.37,2.95-2.02v2.02h-2.95Z"/>
      <path class="cls-13" d="m914.47,18h2.02v1.01q-2.02,0-2.02-1.01Z"/>
      <path class="cls-2" d="m453.46,18q0-1.01,2.02-1.01v1.01h-2.02Z"/>
      <path class="cls-13" d="m559.44,15.98v2.02h-.94v-2.02h.94Z"/>
      <path class="cls-27" d="m563.47,15.98q1.08.58,1.01,2.02c-.36-.72-.72-1.37-1.01-2.02Z"/>
      <path class="cls-3" d="m581.47,18v-2.02q1.01,0,1.01,2.02h-1.01Z"/>
      <path class="cls-13" d="m711.5,18v-2.02h.94v2.02h-.94Z"/>
      <path class="cls-13" d="m894.46,18v-2.02c.29-.5.65-1.01,1.01-1.51-.36,1.15-.72,2.3-1.01,3.53Z"/>
      <path class="cls-18" d="m914.47,18v-.5h2.02v.5h-2.02Z"/>
      <path class="cls-8" d="m405.5,14.47v3.02h-1.01v-3.02h1.01Z"/>
      <path class="cls-10" d="m148.46,15.98c.65-.36,1.3-.72,2.02-1.01q-.79,1.22-2.02,1.01Z"/>
      <path class="cls-9" d="m794.45,13.97v2.52h-1.01v-2.52h1.01Z"/>
      <path class="cls-13" d="m559.44,15.98v-1.01c.65.14,1.3.29,2.02.5-.72.14-1.37.29-2.02.5Z"/>
      <path class="cls-13" d="m577.44,13.97h1.01v2.02q-1.01,0-1.01-2.02Z"/>
      <path class="cls-10" d="m405.5,14.98v-.5c.65-.22,1.3-.36,1.94-.5-.65.29-1.3.65-1.94,1.01Z"/>
      <path class="cls-27" d="m408.46,13.97q1.08-.43,2.02,1.01c-.72-.36-1.37-.72-2.02-1.01Z"/>
      <path class="cls-13" d="m800.5,13.03c.29.29.65.58,1.01.94q-.29.5-1.01-.94Z"/>
      <path class="cls-13" d="m576.5,11.52c.29.14.58.29.94.5v1.94c-.58-.5-1.08-1.01-1.58-1.44.22-.36.43-.72.65-1.01Z"/>
      <path class="cls-12" d="m577.44,13.97v-1.94c.5.43,1.01.94,1.51,1.44-.22.14-.36.29-.5.5h-1.01Z"/>
      <path class="cls-27" d="m717.48,12.53c.65.29,1.3.58,2.02.94-.72.14-1.37.29-2.02.5v-1.44Z"/>
      <path class="cls-13" d="m189.5,13.03v-1.01h1.94v1.44l-1.94-.43Z"/>
      <path class="cls-10" d="m187.49,12.53c.65-.22,1.3-.36,2.02-.5v1.01c-.72-.22-1.37-.36-2.02-.5Z"/>
      <path class="cls-13" d="m193.46,13.03v-2.02h1.01v2.02h-1.01Z"/>
      <path class="cls-21" d="m689.47,11.52c.29.5.65,1.01,1.01,1.51-.65-.29-1.3-.58-1.94-.79.29-.29.58-.5.94-.72Z"/>
      <path class="cls-13" d="m182.45,11.02v-1.01h2.02v1.01h-2.02Z"/>
      <path class="cls-21" d="m327.46,11.02q.86-1.51,3.02-2.52-.79,1.73-3.02,2.52Z"/>
      <path class="cls-13" d="m46.44,9v1.01h-1.94v-1.01h1.94Z"/>
      <path class="cls-27" d="m184.46,6.98h2.02v1.01q-2.02,0-2.02-1.01Z"/>
      <path class="cls-25" d="m37.44,4.97h2.02v1.01q-2.02,0-2.02-1.01Z"/>
      <path class="cls-25" d="m903.46,4.03v.43c-.43.29-.79.65-1.15,1.01-.29-.5-.58-1.01-.86-1.44h2.02Z"/>
      <path class="cls-22" d="m37.44,4.97v-.5h2.02v.5h-2.02Z"/>
      <path class="cls-11" d="m900.5,1.01q0-1.01,1.94-1.01v1.01h-1.94Z"/>
    </g>
  </g>
</svg>